Open Sans-Bold Condensed.ufo
<glyph name="four" format="1">
  <advance width="948"/>
  <unicode hex="0034"/>
  <outline>
    <contour>
      <point x="514.4" y="0" type="line"/>
      <point x="770" y="0" type="line"/>
      <point x="770" y="306.8" type="line"/>
      <point x="917.6" y="306.8" type="line"/>
      <point x="917.6" y="531.9" type="line"/>
      <point x="770" y="531.9" type="line"/>
      <point x="770" y="1461.5" type="line"/>
      <point x="478.9" y="1461.5" type="line"/>
      <point x="37" y="528" type="line"/>
      <point x="37" y="306.8" type="line"/>
      <point x="514.4" y="306.8" type="line"/>
    </contour>
    <contour>
      <point x="266.5" y="531.9" type="line"/>
      <point x="442.4" y="909.2" type="line" smooth="yes"/>
      <point x="468.8" y="968"/>
      <point x="494.9" y="1033.5"/>
      <point x="517.8" y="1105.6" type="curve"/>
      <point x="525.9" y="1105.6" type="line"/>
      <point x="521.6" y="1037.7"/>
      <point x="514.4" y="906.6"/>
      <point x="514.4" y="840.3" type="curve" smooth="yes"/>
      <point x="514.4" y="531.9" type="line"/>
    </contour>
  </outline>
</glyph>
<glyph name="colon" format="1">
  <advance width="553"/>
  <unicode hex="003A"/>
  <note>
    colon
  </note>
  <outline>
    <contour>
      <point x="276.1" y="808.9" type="curve" smooth="yes"/>
      <point x="381.4" y="808.9"/>
      <point x="442.3" y="869.3"/>
      <point x="442.3" y="972.6" type="curve" smooth="yes"/>
      <point x="442.3" y="1077.9"/>
      <point x="384.8" y="1137.4"/>
      <point x="276.1" y="1137.4" type="curve" smooth="yes"/>
      <point x="167.4" y="1137.4"/>
      <point x="110.6" y="1077.2"/>
      <point x="110.6" y="972.6" type="curve" smooth="yes"/>
      <point x="110.6" y="869.4"/>
      <point x="168.1" y="808.9"/>
    </contour>
    <contour>
      <point x="276.1" y="-27.2" type="curve" smooth="yes"/>
      <point x="381.4" y="-27.2"/>
      <point x="442.3" y="33.6"/>
      <point x="442.3" y="136.9" type="curve" smooth="yes"/>
      <point x="442.3" y="242.5"/>
      <point x="384.9" y="300.6"/>
      <point x="276.1" y="300.6" type="curve" smooth="yes"/>
      <point x="167.4" y="300.6"/>
      <point x="110.6" y="240.8"/>
      <point x="110.6" y="136.9" type="curve" smooth="yes"/>
      <point x="110.6" y="33.7"/>
      <point x="168.1" y="-27.2"/>
    </contour>
  </outline>
</glyph>
<glyph name="equal" format="1">
  <advance width="918"/>
  <unicode hex="003D"/>
  <note>
    equal
  </note>
  <outline>
    <contour>
      <point x="105.9" y="550.6" type="line"/>
      <point x="811.1" y="550.6" type="line"/>
      <point x="811.1" y="757.9" type="line"/>
      <point x="105.9" y="757.9" type="line"/>
    </contour>
    <contour>
      <point x="105.9" y="686.2" type="line"/>
      <point x="811.1" y="686.2" type="line"/>
      <point x="811.1" y="891.4" type="line"/>
      <point x="105.9" y="891.4" type="line"/>
    </contour>
  </outline>
</glyph>
<glyph name="D" format="1">
  <advance width="1143"/>
  <unicode hex="0044"/>
  <outline>
    <contour>
      <point x="1059.3" y="745" type="curve" smooth="yes"/>
      <point x="1059.3" y="1197.2"/>
      <point x="860" y="1462"/>
      <point x="520.5" y="1462" type="curve" smooth="yes"/>
      <point x="128.5" y="1462" type="line"/>
      <point x="128.5" y="0" type="line"/>
      <point x="487.2" y="0" type="line" smooth="yes"/>
      <point x="856.7" y="0"/>
      <point x="1059.3" y="262"/>
    </contour>
    <contour>
      <point x="779.9" y="736.9" type="curve" smooth="yes"/>
      <point x="779.9" y="404.2"/>
      <point x="688" y="237.7"/>
      <point x="488.9" y="237.7" type="curve" smooth="yes"/>
      <point x="400.8" y="237.7" type="line"/>
      <point x="400.8" y="1227.1" type="line"/>
      <point x="510.2" y="1227.1" type="line" smooth="yes"/>
      <point x="690.5" y="1227.1"/>
      <point x="779.9" y="1064.2"/>
    </contour>
    <contour>
      <point x="572.2" y="0" type="move" name="bottom"/>
    </contour>
    <contour>
      <point x="572.2" y="731" type="move" name="center"/>
    </contour>
    <contour>
      <point x="572.2" y="1462" type="move" name="top"/>
    </contour>
  </outline>
</glyph>
<glyph name="L" format="1">
  <advance width="823"/>
  <unicode hex="004C"/>
  <outline>
    <contour>
      <point x="778.5" y="0" type="line"/>
      <point x="778.5" y="238.2" type="line"/>
      <point x="400.8" y="238.2" type="line"/>
      <point x="400.8" y="1462" type="line"/>
      <point x="128.5" y="1462" type="line"/>
      <point x="128.5" y="0" type="line"/>
    </contour>
    <contour>
      <point x="412" y="0" type="move" name="bottom"/>
    </contour>
    <contour>
      <point x="412" y="731" type="move" name="center"/>
    </contour>
    <contour>
      <point x="412" y="1462" type="move" name="top"/>
    </contour>
    <contour>
      <point x="803" y="1462" type="move" name="topright"/>
    </contour>
  </outline>
</glyph>
<glyph name="S" format="1">
  <advance width="846"/>
  <unicode hex="0053"/>
  <outline>
    <contour>
      <point x="384.5" y="-20" type="curve" smooth="yes"/>
      <point x="657.9" y="-20"/>
      <point x="795.2" y="134.2"/>
      <point x="795.2" y="395.6" type="curve" smooth="yes"/>
      <point x="795.2" y="631"/>
      <point x="683.5" y="730.3"/>
      <point x="538.9" y="826.9" type="curve" smooth="yes"/>
      <point x="477.6" y="865.9"/>
      <point x="420.6" y="904.9"/>
      <point x="384.4" y="960.6" type="curve" smooth="yes"/>
      <point x="361.7" y="994.7"/>
      <point x="348.3" y="1035"/>
      <point x="348.3" y="1084.6" type="curve" smooth="yes"/>
      <point x="348.3" y="1180.5"/>
      <point x="394.8" y="1243.2"/>
      <point x="491.2" y="1243.2" type="curve" smooth="yes"/>
      <point x="568.7" y="1243.2"/>
      <point x="657.2" y="1195.5"/>
      <point x="698.3" y="1171.5" type="curve"/>
      <point x="788.1" y="1388.7" type="line"/>
      <point x="688.4" y="1450.3"/>
      <point x="577.4" y="1483"/>
      <point x="468.5" y="1483" type="curve" smooth="yes"/>
      <point x="223.1" y="1483"/>
      <point x="79.8" y="1329.6"/>
      <point x="79.8" y="1071.3" type="curve" smooth="yes"/>
      <point x="79.8" y="1008.8"/>
      <point x="88.8" y="955.2"/>
      <point x="106.8" y="902.7" type="curve" smooth="yes"/>
      <point x="156" y="760"/>
      <point x="241.3" y="699.5"/>
      <point x="323.8" y="645.3" type="curve" smooth="yes"/>
      <point x="436.3" y="570.7"/>
      <point x="525.7" y="495.9"/>
      <point x="525.7" y="373.8" type="curve" smooth="yes"/>
      <point x="525.7" y="276.3"/>
      <point x="472.4" y="216.8"/>
      <point x="365.6" y="216.8" type="curve" smooth="yes"/>
      <point x="277.6" y="216.8"/>
      <point x="173.2" y="255.2"/>
      <point x="67.8" y="323.9" type="curve"/>
      <point x="67.8" y="54.8" type="line"/>
      <point x="154.4" y="4.5"/>
      <point x="274.6" y="-20"/>
    </contour>
    <contour>
      <point x="423.2" y="0" type="move" name="bottom"/>
    </contour>
    <contour>
      <point x="423.2" y="1462" type="move" name="top"/>
    </contour>
  </outline>
</glyph>
<glyph name="U" format="1">
  <advance width="1151"/>
  <unicode hex="0055"/>
  <outline>
    <contour>
      <point x="568.8" y="-20" type="curve" smooth="yes"/>
      <point x="866.4" y="-20"/>
      <point x="1027.8" y="168.1"/>
      <point x="1027.8" y="516.3" type="curve" smooth="yes"/>
      <point x="1027.8" y="1462" type="line"/>
      <point x="757.6" y="1462" type="line"/>
      <point x="757.6" y="493.6" type="line" smooth="yes"/>
      <point x="757.6" y="319.3"/>
      <point x="692.7" y="221"/>
      <point x="577.9" y="221" type="curve" smooth="yes"/>
      <point x="455.1" y="221"/>
      <point x="393" y="313.6"/>
      <point x="393" y="500.1" type="curve" smooth="yes"/>
      <point x="393" y="1462" type="line"/>
      <point x="123.2" y="1462" type="line"/>
      <point x="123.2" y="519.8" type="line" smooth="yes"/>
      <point x="123.2" y="164.4"/>
      <point x="278.9" y="-20"/>
    </contour>
    <contour>
      <point x="576" y="0" type="move" name="bottom"/>
    </contour>
    <contour>
      <point x="1035.6" y="10" type="move" name="ogonek"/>
    </contour>
    <contour>
      <point x="576" y="1462" type="move" name="top"/>
    </contour>
    <contour>
      <point x="1131.3" y="1462" type="move" name="topright"/>
    </contour>
  </outline>
</glyph>
<glyph name="V" format="1">
  <advance width="1032"/>
  <unicode hex="0056"/>
  <outline>
    <contour>
      <point x="341.9" y="0" type="line"/>
      <point x="688.2" y="0" type="line"/>
      <point x="1032.1" y="1462" type="line"/>
      <point x="757.5" y="1462" type="line"/>
      <point x="569.3" y="569.4" type="line" smooth="yes"/>
      <point x="548.2" y="464.9"/>
      <point x="529.2" y="354.1"/>
      <point x="516.1" y="242.1" type="curve"/>
      <point x="502" y="364.6"/>
      <point x="478.9" y="508.7"/>
      <point x="465.3" y="569.1" type="curve" smooth="yes"/>
      <point x="274.2" y="1462" type="line"/>
      <point x="0" y="1462" type="line"/>
    </contour>
    <contour>
      <point x="515.5" y="0" type="move" name="bottom"/>
    </contour>
    <contour>
      <point x="515.5" y="1462" type="move" name="top"/>
    </contour>
  </outline>
</glyph>
<glyph name="bracketright" format="1">
  <advance width="649"/>
  <unicode hex="005D"/>
  <note>
    bracketright
  </note>
  <outline>
    <contour>
      <point x="47.4" y="-324" type="line"/>
      <point x="515.8" y="-324" type="line"/>
      <point x="515.8" y="1462" type="line"/>
      <point x="47.4" y="1462" type="line"/>
      <point x="47.4" y="1263.5" type="line"/>
      <point x="269.9" y="1263.5" type="line"/>
      <point x="269.9" y="-124.5" type="line"/>
      <point x="47.4" y="-124.5" type="line"/>
    </contour>
  </outline>
</glyph>
<glyph name="underscore" format="1">
  <advance width="696"/>
  <unicode hex="005F"/>
  <note>
    underscore
  </note>
  <outline>
    <contour>
      <point x="-4" y="-324.1" type="line"/>
      <point x="700.4" y="-324.1" type="line"/>
      <point x="700.4" y="-184" type="line"/>
      <point x="-4" y="-184" type="line"/>
    </contour>
  </outline>
</glyph>
<glyph name="b" format="1">
  <advance width="1016"/>
  <unicode hex="0062"/>
  <outline>
    <contour>
      <point x="606" y="-20" type="curve" smooth="yes"/>
      <point x="821.2" y="-20"/>
      <point x="941.8" y="190.6"/>
      <point x="941.8" y="556.8" type="curve" smooth="yes"/>
      <point x="941.8" y="925"/>
      <point x="820.2" y="1135.5"/>
      <point x="613.4" y="1135.5" type="curve" smooth="yes"/>
      <point x="514.4" y="1135.5"/>
      <point x="441.2" y="1087.6"/>
      <point x="379.1" y="968.6" type="curve"/>
      <point x="365.5" y="968.6" type="line"/>
      <point x="373.4" y="1060.9"/>
      <point x="379.3" y="1143.8"/>
      <point x="379.3" y="1192" type="curve" smooth="yes"/>
      <point x="379.3" y="1556" type="line"/>
      <point x="112.8" y="1556" type="line"/>
      <point x="112.8" y="0" type="line"/>
      <point x="309.1" y="0" type="line"/>
      <point x="354.3" y="126.9" type="line"/>
      <point x="371.4" y="126.9" type="line"/>
      <point x="437.2" y="19.1"/>
      <point x="515.1" y="-20"/>
    </contour>
    <contour>
      <point x="524.2" y="208.8" type="curve" smooth="yes"/>
      <point x="398.9" y="208.8"/>
      <point x="379.3" y="376.3"/>
      <point x="379.3" y="561.3" type="curve" smooth="yes"/>
      <point x="379.3" y="588.4" type="line" smooth="yes"/>
      <point x="379.3" y="759.7"/>
      <point x="402" y="908.9"/>
      <point x="520.3" y="908.9" type="curve" smooth="yes"/>
      <point x="623.9" y="908.9"/>
      <point x="669.9" y="792.3"/>
      <point x="669.9" y="561.4" type="curve" smooth="yes"/>
      <point x="669.9" y="393.3"/>
      <point x="646.6" y="208.8"/>
    </contour>
    <contour>
      <point x="508.6" y="0" type="move" name="bottom"/>
    </contour>
    <contour>
      <point x="508.6" y="1114.4" type="move" name="top"/>
    </contour>
  </outline>
</glyph>
<glyph name="p" format="1">
  <advance width="1016"/>
  <unicode hex="0070"/>
  <outline>
    <contour>
      <point x="112.8" y="-492" type="line"/>
      <point x="381.4" y="-492" type="line"/>
      <point x="381.4" y="-36.9" type="line" smooth="yes"/>
      <point x="380.8" y="-11.6"/>
      <point x="376.4" y="35.8"/>
      <point x="365.3" y="126.9" type="curve"/>
      <point x="378.5" y="126.9" type="line"/>
      <point x="439.5" y="22.6"/>
      <point x="513.8" y="-20"/>
      <point x="605.3" y="-20" type="curve" smooth="yes"/>
      <point x="818.3" y="-20"/>
      <point x="941.8" y="198"/>
      <point x="941.8" y="562.5" type="curve" smooth="yes"/>
      <point x="941.8" y="924.6"/>
      <point x="822.5" y="1135.4"/>
      <point x="615.4" y="1135.4" type="curve" smooth="yes"/>
      <point x="515.7" y="1135.4"/>
      <point x="431.5" y="1080.7"/>
      <point x="377.1" y="968.9" type="curve"/>
      <point x="365.3" y="968.9" type="line"/>
      <point x="318.9" y="1114.4" type="line"/>
      <point x="112.8" y="1114.4" type="line"/>
    </contour>
    <contour>
      <point x="526.6" y="208.8" type="curve" smooth="yes"/>
      <point x="404" y="208.8"/>
      <point x="379.3" y="374.6"/>
      <point x="379.3" y="561.5" type="curve" smooth="yes"/>
      <point x="379.3" y="596" type="line" smooth="yes"/>
      <point x="379.3" y="760.2"/>
      <point x="405" y="908.9"/>
      <point x="525.4" y="908.9" type="curve" smooth="yes"/>
      <point x="651.1" y="908.9"/>
      <point x="669.9" y="740.2"/>
      <point x="669.9" y="564.6" type="curve" smooth="yes"/>
      <point x="669.9" y="387.5"/>
      <point x="647.6" y="208.8"/>
    </contour>
    <contour>
      <point x="508.6" y="0" type="move" name="bottom"/>
    </contour>
    <contour>
      <point x="508.6" y="1114.4" type="move" name="top"/>
    </contour>
  </outline>
</glyph>
<glyph name="x" format="1">
  <advance width="889"/>
  <unicode hex="0078"/>
  <outline>
    <contour>
      <point x="14" y="0" type="line"/>
      <point x="290.5" y="0" type="line"/>
      <point x="438.1" y="356.3" type="line"/>
      <point x="596.3" y="0" type="line"/>
      <point x="874.1" y="0" type="line"/>
      <point x="582.3" y="569.2" type="line"/>
      <point x="862.1" y="1114.4" type="line"/>
      <point x="588.1" y="1114.4" type="line"/>
      <point x="451.3" y="774.5" type="line"/>
      <point x="302.9" y="1114.4" type="line"/>
      <point x="26.3" y="1114.4" type="line"/>
      <point x="304.9" y="569.3" type="line"/>
    </contour>
    <contour>
      <point x="445.1" y="0" type="move" name="bottom"/>
    </contour>
    <contour>
      <point x="445.1" y="1114.4" type="move" name="top"/>
    </contour>
  </outline>
</glyph>
<glyph name="exclamdown" format="1">
  <advance width="555"/>
  <unicode hex="00A1"/>
  <note>
    exclamdown
  </note>
  <outline>
    <contour>
      <point x="112.3" y="-368.6" type="line"/>
      <point x="435.4" y="-368.6" type="line"/>
      <point x="385" y="621.7" type="line"/>
      <point x="164.1" y="621.7" type="line"/>
    </contour>
    <contour>
      <point x="274.7" y="791.4" type="curve" smooth="yes"/>
      <point x="382.8" y="791.4"/>
      <point x="442.3" y="848.8"/>
      <point x="442.3" y="954.4" type="curve" smooth="yes"/>
      <point x="442.3" y="1057"/>
      <point x="382.8" y="1118.5"/>
      <point x="274.7" y="1118.5" type="curve" smooth="yes"/>
      <point x="173" y="1118.5"/>
      <point x="111.3" y="1058.3"/>
      <point x="111.3" y="954.4" type="curve" smooth="yes"/>
      <point x="111.3" y="848.4"/>
      <point x="170.2" y="791.4"/>
    </contour>
  </outline>
</glyph>
<glyph name="brokenbar" format="1">
  <advance width="1038"/>
  <unicode hex="00A6"/>
  <note>
    brokenbar
  </note>
  <outline>
    <contour>
      <point x="415.9" y="-471" type="line"/>
      <point x="622.9" y="-471" type="line"/>
      <point x="622.9" y="338.5" type="line"/>
      <point x="415.9" y="338.5" type="line"/>
    </contour>
    <contour>
      <point x="415.9" y="743.3" type="line"/>
      <point x="622.9" y="743.3" type="line"/>
      <point x="622.9" y="1551.1" type="line"/>
      <point x="415.9" y="1551.1" type="line"/>
    </contour>
  </outline>
</glyph>
<glyph name="micro" format="1">
  <advance width="1038"/>
  <unicode hex="00B5"/>
  <note>
    mu
  </note>
  <outline>
    <contour>
      <point x="101.6" y="-492" type="line"/>
      <point x="370.9" y="-492" type="line"/>
      <point x="370.9" y="-251.7" type="line" smooth="yes"/>
      <point x="370.9" y="-156.5"/>
      <point x="367.9" y="-67.5"/>
      <point x="361.9" y="20.2" type="curve"/>
      <point x="363.2" y="20.2" type="line"/>
      <point x="393.8" y="-7.4"/>
      <point x="427.1" y="-20"/>
      <point x="466.9" y="-20" type="curve" smooth="yes"/>
      <point x="553.1" y="-20"/>
      <point x="622.5" y="28.6"/>
      <point x="666.1" y="142.9" type="curve"/>
      <point x="681.8" y="142.9" type="line"/>
      <point x="714.8" y="0" type="line"/>
      <point x="927.8" y="0" type="line"/>
      <point x="927.8" y="1114.4" type="line"/>
      <point x="658.8" y="1114.4" type="line"/>
      <point x="658.8" y="580" type="line" smooth="yes"/>
      <point x="658.8" y="446.1"/>
      <point x="645.8" y="344.8"/>
      <point x="618.9" y="290.6" type="curve" smooth="yes"/>
      <point x="595.2" y="233.6"/>
      <point x="551.2" y="204.5"/>
      <point x="490.1" y="204.5" type="curve" smooth="yes"/>
      <point x="410.3" y="204.5"/>
      <point x="370.9" y="264.5"/>
      <point x="370.9" y="414.3" type="curve" smooth="yes"/>
      <point x="370.9" y="1114.4" type="line"/>
      <point x="101.6" y="1114.4" type="line"/>
    </contour>
  </outline>
</glyph>
<glyph name="ordmasculine" format="1">
  <advance width="686"/>
  <unicode hex="00BA"/>
  <note>
    ordmasculine
  </note>
  <outline>
    <contour>
      <point x="625.3" y="1119.9" type="curve" smooth="yes"/>
      <point x="625.3" y="1340.9"/>
      <point x="515.2" y="1479"/>
      <point x="343.9" y="1479" type="curve" smooth="yes"/>
      <point x="167.4" y="1479"/>
      <point x="60.9" y="1346.9"/>
      <point x="60.9" y="1119.9" type="curve" smooth="yes"/>
      <point x="60.9" y="899.9"/>
      <point x="169.5" y="758.1"/>
      <point x="342.5" y="758.1" type="curve" smooth="yes"/>
      <point x="517.1" y="758.1"/>
      <point x="625.3" y="891.5"/>
    </contour>
    <contour>
      <point x="233.5" y="1119.9" type="curve" smooth="yes"/>
      <point x="233.5" y="1260.9"/>
      <point x="268.1" y="1325.2"/>
      <point x="344" y="1325.2" type="curve" smooth="yes"/>
      <point x="420.3" y="1325.2"/>
      <point x="452.7" y="1260.8"/>
      <point x="452.7" y="1119.9" type="curve" smooth="yes"/>
      <point x="452.7" y="979"/>
      <point x="420.1" y="911.2"/>
      <point x="344" y="911.2" type="curve" smooth="yes"/>
      <point x="268.3" y="911.2"/>
      <point x="233.5" y="979"/>
    </contour>
  </outline>
</glyph>
<glyph name="Eth" format="1">
  <advance width="1143"/>
  <unicode hex="00D0"/>
  <note>
    Eth
  </note>
  <outline>
    <contour>
      <point x="130" y="0" type="line"/>
      <point x="488" y="0" type="line" smooth="yes"/>
      <point x="858" y="0"/>
      <point x="1060" y="262"/>
      <point x="1060" y="745" type="curve" smooth="yes"/>
      <point x="1060" y="1197"/>
      <point x="861" y="1462"/>
      <point x="522" y="1462" type="curve" smooth="yes"/>
      <point x="130" y="1462" type="line"/>
      <point x="130" y="842" type="line"/>
      <point x="0" y="842" type="line"/>
      <point x="0" y="604" type="line"/>
      <point x="130" y="604" type="line"/>
    </contour>
    <contour>
      <point x="402" y="238" type="line"/>
      <point x="402" y="604" type="line"/>
      <point x="585" y="604" type="line"/>
      <point x="585" y="842" type="line"/>
      <point x="402" y="842" type="line"/>
      <point x="402" y="1227" type="line"/>
      <point x="511" y="1227" type="line" smooth="yes"/>
      <point x="691" y="1227"/>
      <point x="781" y="1064"/>
      <point x="781" y="737" type="curve" smooth="yes"/>
      <point x="781" y="404"/>
      <point x="689" y="238"/>
      <point x="490" y="238" type="curve" smooth="yes"/>
    </contour>
  </outline>
</glyph>
<glyph name="Eng" format="1">
  <advance width="1282"/>
  <unicode hex="014A"/>
  <note>
    Eng
  </note>
  <outline>
    <contour>
      <point x="767.8" y="-422.2" type="curve" smooth="yes"/>
      <point x="1008.7" y="-422.2"/>
      <point x="1153.3" y="-246.4"/>
      <point x="1153.3" y="44.9" type="curve" smooth="yes"/>
      <point x="1153.3" y="1462" type="line"/>
      <point x="902.6" y="1462" type="line"/>
      <point x="902.6" y="942.1" type="line" smooth="yes"/>
      <point x="902.6" y="835"/>
      <point x="908.4" y="701.9"/>
      <point x="921.8" y="541.4" type="curve"/>
      <point x="909.5" y="541.4" type="line"/>
      <point x="450.8" y="1462" type="line"/>
      <point x="128.5" y="1462" type="line"/>
      <point x="128.5" y="0" type="line"/>
      <point x="380.6" y="0" type="line"/>
      <point x="380.6" y="649.3" type="line" smooth="yes"/>
      <point x="380.6" y="731.2"/>
      <point x="373.1" y="870"/>
      <point x="358.1" y="1066.7" type="curve"/>
      <point x="373.1" y="1066.7" type="line"/>
      <point x="906.6" y="-12" type="line"/>
      <point x="900.9" y="21.2" type="line"/>
      <point x="890.8" y="-105.8"/>
      <point x="837.3" y="-180.3"/>
      <point x="729.4" y="-180.3" type="curve" smooth="yes"/>
      <point x="688.2" y="-180.3"/>
      <point x="645.3" y="-173.3"/>
      <point x="598.3" y="-160.3" type="curve"/>
      <point x="598.3" y="-397.2" type="line"/>
      <point x="639.7" y="-414.2"/>
      <point x="696.9" y="-422.2"/>
    </contour>
  </outline>
</glyph>
<glyph name="OE" format="1">
  <advance width="1446"/>
  <unicode hex="0152"/>
  <note>
    OE
  </note>
  <outline>
    <contour>
      <point x="618.2" y="-20" type="curve" smooth="yes"/>
      <point x="667.2" y="-19.4"/>
      <point x="709.6" y="-13.2"/>
      <point x="760.7" y="0" type="curve"/>
      <point x="1359.7" y="0" type="line"/>
      <point x="1359.7" y="238.2" type="line"/>
      <point x="977.1" y="238.2" type="line"/>
      <point x="977.1" y="642.7" type="line"/>
      <point x="1331.2" y="642.7" type="line"/>
      <point x="1331.2" y="878.8" type="line"/>
      <point x="977.1" y="878.8" type="line"/>
      <point x="977.1" y="1226.6" type="line"/>
      <point x="1359.7" y="1226.6" type="line"/>
      <point x="1359.7" y="1462" type="line"/>
      <point x="770.6" y="1462" type="line"/>
      <point x="718.6" y="1477.3"/>
      <point x="672.6" y="1484.9"/>
      <point x="619.9" y="1485.5" type="curve" smooth="yes"/>
      <point x="267.8" y="1485.5"/>
      <point x="84.4" y="1218.6"/>
      <point x="84.4" y="737.8" type="curve" smooth="yes"/>
      <point x="84.4" y="247.3"/>
      <point x="266.2" y="-20"/>
    </contour>
    <contour>
      <point x="613.7" y="221" type="curve" smooth="yes"/>
      <point x="446.5" y="221.6"/>
      <point x="362" y="397.1"/>
      <point x="362" y="733" type="curve" smooth="yes"/>
      <point x="362" y="1070.2"/>
      <point x="446.7" y="1243.9"/>
      <point x="615.8" y="1244.5" type="curve" smooth="yes"/>
      <point x="641.6" y="1244.5"/>
      <point x="673.4" y="1240.3"/>
      <point x="704.8" y="1231.2" type="curve"/>
      <point x="704.8" y="235.7" type="line"/>
      <point x="678.3" y="226.6"/>
      <point x="645.1" y="221"/>
    </contour>
    <contour>
      <point x="723.4" y="0" type="move" name="bottom"/>
    </contour>
    <contour>
      <point x="723.4" y="1462" type="move" name="top"/>
    </contour>
  </outline>
</glyph>
<glyph name="Ohorn" format="1">
  <advance width="1311"/>
  <unicode hex="01A0"/>
  <note>
    Ohorn
  </note>
  <outline>
    <contour>
      <point x="609.7" y="-20" type="curve" smooth="yes"/>
      <point x="947.1" y="-20"/>
      <point x="1134.6" y="249"/>
      <point x="1134.6" y="733" type="curve" smooth="yes"/>
      <point x="1134.6" y="878.5"/>
      <point x="1117.1" y="1006.7"/>
      <point x="1080.7" y="1122.2" type="curve"/>
      <point x="1229" y="1186"/>
      <point x="1317.5" y="1311.2"/>
      <point x="1364.5" y="1534.9" type="curve"/>
      <point x="1350.3" y="1556" type="line"/>
      <point x="1069" y="1556" type="line"/>
      <point x="1066" y="1424.7"/>
      <point x="1042.4" y="1338.1"/>
      <point x="997.3" y="1294.7" type="curve"/>
      <point x="904" y="1421.5"/>
      <point x="775.7" y="1485.1"/>
      <point x="612" y="1485.1" type="curve" smooth="yes"/>
      <point x="271.6" y="1485.1"/>
      <point x="84.4" y="1218.7"/>
      <point x="84.4" y="735" type="curve" smooth="yes"/>
      <point x="84.4" y="246.4"/>
      <point x="270.7" y="-20"/>
    </contour>
    <contour>
      <point x="609.7" y="221" type="curve" smooth="yes"/>
      <point x="447.2" y="221"/>
      <point x="361.4" y="399.5"/>
      <point x="361.4" y="733" type="curve" smooth="yes"/>
      <point x="361.4" y="1068.6"/>
      <point x="447.4" y="1244.8"/>
      <point x="612" y="1244.8" type="curve" smooth="yes"/>
      <point x="775.5" y="1244.8"/>
      <point x="856.9" y="1074.3"/>
      <point x="856.9" y="733" type="curve" smooth="yes"/>
      <point x="856.9" y="392"/>
      <point x="773.9" y="221"/>
    </contour>
    <contour>
      <point x="607.4" y="0" type="move" name="bottom"/>
    </contour>
    <contour>
      <point x="612.3" y="1462" type="move" name="top"/>
    </contour>
  </outline>
</glyph>
<glyph name="apostrophemod" format="1">
  <advance width="420"/>
  <unicode hex="02BC"/>
  <note>
    afii57929
  </note>
  <outline>
    <contour>
      <point x="19.9" y="960.8" type="curve"/>
      <point x="223.6" y="960.8" type="line"/>
      <point x="306.3" y="1147.4"/>
      <point x="365.5" y="1307.6"/>
      <point x="399.4" y="1440" type="curve"/>
      <point x="385.4" y="1462" type="line"/>
      <point x="120.6" y="1462" type="line"/>
      <point x="95.9" y="1300.8"/>
      <point x="62.9" y="1133.6"/>
    </contour>
  </outline>
</glyph>
<glyph name="firsttonechinese" format="1">
  <advance width="1085"/>
  <unicode hex="02C9"/>
  <note>
    uni02C9
  </note>
  <outline>
    <contour>
      <point x="240.4" y="1276.2" type="line"/>
      <point x="846.4" y="1276.2" type="line"/>
      <point x="846.4" y="1475.1" type="line"/>
      <point x="240.4" y="1475.1" type="line"/>
    </contour>
  </outline>
</glyph>
<glyph name="hungarumlaut" format="1">
  <advance width="1149"/>
  <unicode hex="02DD"/>
  <note>
    hungarumlaut
  </note>
  <outline>
    <component base="hungarumlautcomb"/>
    <contour>
      <point x="594" y="1126" type="move" name="_top"/>
    </contour>
  </outline>
</glyph>
<glyph name="gravecomb" format="1">
  <advance width="0"/>
  <unicode hex="0300"/>
  <note>
    gravecomb
  </note>
  <outline>
    <contour>
      <point x="-702.5" y="1241" type="curve"/>
      <point x="-515.2" y="1241" type="line"/>
      <point x="-515.2" y="1268.3" type="line"/>
      <point x="-565.9" y="1336"/>
      <point x="-651.3" y="1490.6"/>
      <point x="-686.6" y="1569" type="curve"/>
      <point x="-1005.5" y="1569" type="line"/>
      <point x="-1005.5" y="1547.1" type="line"/>
      <point x="-969.4" y="1485.5"/>
      <point x="-800" y="1320.4"/>
    </contour>
    <contour>
      <point x="-760" y="1114.4" type="move" name="_top"/>
    </contour>
    <contour>
      <point x="-760" y="1569" type="move" name="top"/>
    </contour>
  </outline>
</glyph>
<glyph name="acutecomb" format="1">
  <advance width="0"/>
  <unicode hex="0301"/>
  <note>
    acutecomb
  </note>
  <outline>
    <contour>
      <point x="-789.7" y="1241" type="line"/>
      <point x="-602.7" y="1241" type="line"/>
      <point x="-484.6" y="1336.8"/>
      <point x="-331.8" y="1490.5"/>
      <point x="-300.1" y="1547.1" type="curve"/>
      <point x="-300.1" y="1569" type="line"/>
      <point x="-618.3" y="1569" type="line"/>
      <point x="-648" y="1501.6"/>
      <point x="-733.4" y="1340.1"/>
      <point x="-789.7" y="1268.3" type="curve"/>
    </contour>
    <contour>
      <point x="-620.2" y="1147.5" type="move" name="_top"/>
    </contour>
    <contour>
      <point x="-544.9" y="1569" type="move" name="top"/>
    </contour>
  </outline>
</glyph>
<glyph name="circumflexcomb" format="1">
  <advance width="1135"/>
  <unicode hex="0302"/>
  <note>
    circumflex
  </note>
  <outline>
    <contour>
      <point x="211" y="1241" type="line"/>
      <point x="378" y="1241" type="line"/>
      <point x="408" y="1264"/>
      <point x="448" y="1298"/>
      <point x="480" y="1329" type="curve" smooth="yes"/>
      <point x="503" y="1352"/>
      <point x="527" y="1376"/>
      <point x="565" y="1419" type="curve"/>
      <point x="614" y="1366"/>
      <point x="638" y="1340"/>
      <point x="649" y="1331" type="curve" smooth="yes"/>
      <point x="675" y="1305"/>
      <point x="687" y="1294"/>
      <point x="753" y="1241" type="curve"/>
      <point x="921" y="1241" type="line"/>
      <point x="921" y="1268" type="line"/>
      <point x="807" y="1412"/>
      <point x="735" y="1513"/>
      <point x="705" y="1569" type="curve"/>
      <point x="427" y="1569" type="line"/>
      <point x="401" y="1518"/>
      <point x="329" y="1419"/>
      <point x="211" y="1268" type="curve"/>
    </contour>
    <contour>
      <point x="567" y="1114" type="move" name="_top"/>
    </contour>
    <contour>
      <point x="567" y="1569" type="move" name="top"/>
    </contour>
  </outline>
</glyph>
<glyph name="macroncomb" format="1">
  <advance width="606"/>
  <unicode hex="0304"/>
  <outline>
    <contour>
      <point x="0" y="1246.1" type="line"/>
      <point x="606" y="1246.1" type="line"/>
      <point x="606" y="1445.7" type="line"/>
      <point x="0" y="1445.7" type="line"/>
    </contour>
    <contour>
      <point x="303" y="1114.4" type="move" name="_top"/>
    </contour>
    <contour>
      <point x="303" y="1445.7" type="move" name="top"/>
    </contour>
  </outline>
</glyph>
<glyph name="brevecomb" format="1">
  <advance width="1126"/>
  <unicode hex="0306"/>
  <note>
    breve
  </note>
  <outline>
    <contour>
      <point x="559" y="1240" type="curve" smooth="yes"/>
      <point x="744" y="1240"/>
      <point x="857" y="1359"/>
      <point x="872" y="1567" type="curve"/>
      <point x="711" y="1567" type="line"/>
      <point x="698" y="1476"/>
      <point x="664" y="1442"/>
      <point x="561" y="1442" type="curve" smooth="yes"/>
      <point x="450" y="1442"/>
      <point x="421" y="1472"/>
      <point x="412" y="1567" type="curve"/>
      <point x="252" y="1567" type="line"/>
      <point x="259" y="1360"/>
      <point x="363" y="1240"/>
    </contour>
    <contour>
      <point x="562" y="1114" type="move" name="_top"/>
    </contour>
    <contour>
      <point x="562" y="1567" type="move" name="top"/>
    </contour>
  </outline>
</glyph>
<glyph name="dieresiscomb" format="1">
  <advance width="1130"/>
  <unicode hex="0308"/>
  <note>
    dieresis
  </note>
  <outline>
    <contour>
      <point x="764" y="1276" type="curve" smooth="yes"/>
      <point x="846" y="1276"/>
      <point x="896" y="1323"/>
      <point x="896" y="1403" type="curve" smooth="yes"/>
      <point x="896" y="1485"/>
      <point x="844" y="1532"/>
      <point x="764" y="1532" type="curve" smooth="yes"/>
      <point x="680" y="1532"/>
      <point x="631" y="1485"/>
      <point x="631" y="1403" type="curve" smooth="yes"/>
      <point x="631" y="1324"/>
      <point x="681" y="1276"/>
    </contour>
    <contour>
      <point x="364" y="1276" type="curve" smooth="yes"/>
      <point x="446" y="1276"/>
      <point x="498" y="1326"/>
      <point x="498" y="1403" type="curve" smooth="yes"/>
      <point x="498" y="1481"/>
      <point x="446" y="1532"/>
      <point x="364" y="1532" type="curve" smooth="yes"/>
      <point x="282" y="1532"/>
      <point x="233" y="1485"/>
      <point x="233" y="1403" type="curve" smooth="yes"/>
      <point x="233" y="1322"/>
      <point x="282" y="1276"/>
    </contour>
    <contour>
      <point x="564" y="1145" type="move" name="_top"/>
    </contour>
    <contour>
      <point x="564" y="1532" type="move" name="top"/>
    </contour>
  </outline>
</glyph>
<glyph name="hookabovecomb" format="1">
  <advance width="0"/>
  <unicode hex="0309"/>
  <note>
    hookabovecomb
  </note>
  <outline>
    <contour>
      <point x="-115" y="1217" type="line"/>
      <point x="47" y="1217" type="line"/>
      <point x="57" y="1296" type="line"/>
      <point x="166" y="1323"/>
      <point x="220" y="1386"/>
      <point x="220" y="1487" type="curve" smooth="yes"/>
      <point x="220" y="1627"/>
      <point x="128" y="1696"/>
      <point x="-55" y="1696" type="curve" smooth="yes"/>
      <point x="-129" y="1696"/>
      <point x="-182" y="1689"/>
      <point x="-219" y="1675" type="curve"/>
      <point x="-219" y="1520" type="line"/>
      <point x="-171" y="1533"/>
      <point x="-128" y="1540"/>
      <point x="-88" y="1540" type="curve" smooth="yes"/>
      <point x="-36" y="1540"/>
      <point x="1" y="1518"/>
      <point x="1" y="1470" type="curve" smooth="yes"/>
      <point x="1" y="1419"/>
      <point x="-35" y="1386"/>
      <point x="-135" y="1369" type="curve"/>
    </contour>
    <contour>
      <point x="0" y="1114" type="move" name="_top"/>
    </contour>
    <contour>
      <point x="0" y="1696" type="move" name="top"/>
    </contour>
  </outline>
</glyph>
<glyph name="ringcomb" format="1">
  <advance width="1116"/>
  <unicode hex="030A"/>
  <note>
    ring
  </note>
  <outline>
    <contour>
      <point x="554" y="1239" type="curve" smooth="yes"/>
      <point x="703" y="1239"/>
      <point x="804" y="1332"/>
      <point x="804" y="1475" type="curve" smooth="yes"/>
      <point x="804" y="1612"/>
      <point x="701" y="1706"/>
      <point x="554" y="1706" type="curve" smooth="yes"/>
      <point x="408" y="1706"/>
      <point x="311" y="1617"/>
      <point x="311" y="1473" type="curve" smooth="yes"/>
      <point x="311" y="1329"/>
      <point x="407" y="1239"/>
    </contour>
    <contour>
      <point x="554" y="1372" type="curve" smooth="yes"/>
      <point x="487" y="1372"/>
      <point x="454" y="1411"/>
      <point x="454" y="1473" type="curve" smooth="yes"/>
      <point x="454" y="1535"/>
      <point x="498" y="1574"/>
      <point x="554" y="1574" type="curve" smooth="yes"/>
      <point x="612" y="1574"/>
      <point x="654" y="1535"/>
      <point x="654" y="1473" type="curve" smooth="yes"/>
      <point x="654" y="1410"/>
      <point x="611" y="1372"/>
    </contour>
    <contour>
      <point x="558" y="1114" type="move" name="_top"/>
    </contour>
    <contour>
      <point x="558" y="1706" type="move" name="top"/>
    </contour>
  </outline>
</glyph>
<glyph name="hungarumlautcomb" format="1">
  <advance width="1149"/>
  <unicode hex="030B"/>
  <note>
    hungarumlaut
  </note>
  <outline>
    <contour>
      <point x="542" y="1241" type="line"/>
      <point x="691" y="1241" type="line"/>
      <point x="806" y="1336"/>
      <point x="963" y="1491"/>
      <point x="997" y="1547" type="curve"/>
      <point x="997" y="1569" type="line"/>
      <point x="716" y="1569" type="line"/>
      <point x="685" y="1501"/>
      <point x="604" y="1354"/>
      <point x="542" y="1268" type="curve"/>
    </contour>
    <contour>
      <point x="152" y="1241" type="line"/>
      <point x="302" y="1241" type="line"/>
      <point x="394" y="1313"/>
      <point x="562" y="1479"/>
      <point x="606" y="1547" type="curve"/>
      <point x="606" y="1569" type="line"/>
      <point x="325" y="1569" type="line"/>
      <point x="294" y="1500"/>
      <point x="213" y="1354"/>
      <point x="152" y="1268" type="curve"/>
    </contour>
    <contour>
      <point x="575" y="1114" type="move" name="_top"/>
    </contour>
    <contour>
      <point x="575" y="1569" type="move" name="top"/>
    </contour>
  </outline>
</glyph>
<glyph name="caroncomb" format="1">
  <advance width="1135"/>
  <unicode hex="030C"/>
  <note>
    caron
  </note>
  <outline>
    <contour>
      <point x="428" y="1241" type="curve"/>
      <point x="705" y="1241" type="line"/>
      <point x="718" y="1264"/>
      <point x="737" y="1293"/>
      <point x="763" y="1329" type="curve" smooth="yes"/>
      <point x="802" y="1385"/>
      <point x="855" y="1457"/>
      <point x="922" y="1542" type="curve"/>
      <point x="922" y="1569" type="line"/>
      <point x="754" y="1569" type="line"/>
      <point x="689" y="1515"/>
      <point x="611" y="1440"/>
      <point x="569" y="1391" type="curve"/>
      <point x="494" y="1480"/>
      <point x="444" y="1519"/>
      <point x="379" y="1569" type="curve"/>
      <point x="211" y="1569" type="line"/>
      <point x="211" y="1542" type="line"/>
      <point x="280" y="1455"/>
      <point x="334" y="1383"/>
      <point x="373" y="1326" type="curve" smooth="yes"/>
      <point x="399" y="1290"/>
      <point x="417" y="1261"/>
    </contour>
    <contour>
      <point x="568" y="1114" type="move" name="_top"/>
    </contour>
    <contour>
      <point x="568" y="1569" type="move" name="top"/>
    </contour>
  </outline>
</glyph>
<glyph name="dblgravecomb" format="1">
  <advance width="0"/>
  <unicode hex="030F"/>
  <note>
    uni030F
  </note>
  <outline>
    <contour>
      <point x="-408.3" y="1241" type="curve"/>
      <point x="-257.7" y="1241" type="line"/>
      <point x="-257.7" y="1268.3" type="line"/>
      <point x="-313.1" y="1342.7"/>
      <point x="-387.2" y="1472.8"/>
      <point x="-431.9" y="1569" type="curve"/>
      <point x="-715.4" y="1569" type="line"/>
      <point x="-715.4" y="1547.1" type="line"/>
      <point x="-677.2" y="1484.6"/>
      <point x="-510.7" y="1323.6"/>
    </contour>
    <contour>
      <point x="-799.2" y="1241" type="curve"/>
      <point x="-649.3" y="1241" type="line"/>
      <point x="-649.3" y="1268.3" type="line"/>
      <point x="-689.8" y="1321.6"/>
      <point x="-778.3" y="1467.7"/>
      <point x="-822.8" y="1569" type="curve"/>
      <point x="-1103.9" y="1569" type="line"/>
      <point x="-1103.9" y="1547.1" type="line"/>
      <point x="-1065.9" y="1485.9"/>
      <point x="-898.3" y="1320.2"/>
    </contour>
    <contour>
      <point x="-681.3" y="1114.4" type="move" name="_top"/>
    </contour>
    <contour>
      <point x="-681.3" y="1569" type="move" name="top"/>
    </contour>
  </outline>
</glyph>
<glyph name="commaturnedabovecomb" format="1">
  <advance width="600"/>
  <unicode hex="0312"/>
  <outline>
    <contour>
      <point x="136" y="1241" type="line"/>
      <point x="399" y="1241" type="line"/>
      <point x="409" y="1319"/>
      <point x="439" y="1455"/>
      <point x="465" y="1542" type="curve"/>
      <point x="465" y="1569" type="line"/>
      <point x="301" y="1569" type="line"/>
      <point x="232" y="1468"/>
      <point x="179" y="1366"/>
      <point x="136" y="1262" type="curve"/>
    </contour>
    <contour>
      <point x="301" y="1114" type="move" name="_top"/>
    </contour>
    <contour>
      <point x="301" y="1569" type="move" name="top"/>
    </contour>
  </outline>
</glyph>
<glyph name="dotbelowcomb" format="1">
  <advance width="0"/>
  <unicode hex="0323"/>
  <note>
    dotbelowcomb
  </note>
  <outline>
    <contour>
      <point x="-713.1" y="-416.3" type="curve" smooth="yes"/>
      <point x="-613.8" y="-416.3"/>
      <point x="-558.6" y="-365.9"/>
      <point x="-558.6" y="-274.7" type="curve" smooth="yes"/>
      <point x="-558.6" y="-185.3"/>
      <point x="-610.3" y="-131"/>
      <point x="-713.1" y="-131" type="curve" smooth="yes"/>
      <point x="-815.8" y="-131"/>
      <point x="-868.4" y="-179"/>
      <point x="-868.4" y="-274.7" type="curve" smooth="yes"/>
      <point x="-868.4" y="-369.4"/>
      <point x="-812.3" y="-416.3"/>
    </contour>
    <contour>
      <point x="-714.7" y="0" type="move" name="_bottom"/>
    </contour>
    <contour>
      <point x="-714.7" y="-416.3" type="move" name="bottom"/>
    </contour>
  </outline>
</glyph>
<glyph name="cedillacomb" format="1">
  <advance width="416"/>
  <unicode hex="0327"/>
  <note>
    cedilla
  </note>
  <outline>
    <contour>
      <point x="107" y="-492" type="curve" smooth="yes"/>
      <point x="305" y="-492"/>
      <point x="397" y="-403"/>
      <point x="397" y="-260" type="curve" smooth="yes"/>
      <point x="397" y="-159"/>
      <point x="332" y="-99"/>
      <point x="241" y="-77" type="curve"/>
      <point x="279" y="0" type="line"/>
      <point x="106" y="0" type="line"/>
      <point x="26" y="-158" type="line"/>
      <point x="130" y="-175"/>
      <point x="184" y="-210"/>
      <point x="184" y="-268" type="curve" smooth="yes"/>
      <point x="184" y="-311"/>
      <point x="156" y="-334"/>
      <point x="96" y="-334" type="curve" smooth="yes"/>
      <point x="56" y="-334"/>
      <point x="16" y="-328"/>
      <point x="-25" y="-317" type="curve"/>
      <point x="-25" y="-470" type="line"/>
      <point x="13" y="-485"/>
      <point x="56" y="-492"/>
    </contour>
    <contour>
      <point x="186" y="0" type="move" name="_bottom"/>
    </contour>
    <contour>
      <point x="186" y="-492" type="move" name="bottom"/>
    </contour>
  </outline>
</glyph>
<glyph name="tonos" format="1">
  <advance width="1098"/>
  <unicode hex="0384"/>
  <note>
    tonos
  </note>
  <outline>
    <contour>
      <point x="429.9" y="1241" type="line"/>
      <point x="594.1" y="1241" type="line"/>
      <point x="669.7" y="1360.2"/>
      <point x="726" y="1460.2"/>
      <point x="764" y="1542.1" type="curve"/>
      <point x="764" y="1566.6" type="line"/>
      <point x="502.1" y="1566.6" type="line"/>
      <point x="483.5" y="1455.8"/>
      <point x="459.1" y="1357.7"/>
      <point x="429.9" y="1272.5" type="curve"/>
    </contour>
    <contour>
      <point x="582.3" y="1114.4" type="move" name="_top"/>
    </contour>
    <contour>
      <point x="783.023" y="1556" type="move" name="_topleft"/>
    </contour>
  </outline>
</glyph>
<glyph name="dieresistonos" format="1">
  <advance width="1141"/>
  <unicode hex="0385"/>
  <note>
    dieresistonos
  </note>
  <outline>
    <contour>
      <point x="471.2" y="1357.4" type="line"/>
      <point x="597.9" y="1357.4" type="line"/>
      <point x="685.7" y="1471.5"/>
      <point x="748.1" y="1575.7"/>
      <point x="791.2" y="1664.4" type="curve"/>
      <point x="791.2" y="1684" type="line"/>
      <point x="538.8" y="1684" type="line"/>
      <point x="524.7" y="1586.5"/>
      <point x="501.6" y="1485.2"/>
      <point x="471.2" y="1384" type="curve"/>
    </contour>
    <contour>
      <point x="304.5" y="1244.7" type="curve" smooth="yes"/>
      <point x="376.1" y="1244.7"/>
      <point x="429.5" y="1282.9"/>
      <point x="429.5" y="1372.8" type="curve" smooth="yes"/>
      <point x="429.5" y="1463.4"/>
      <point x="375.4" y="1500.3"/>
      <point x="304.5" y="1500.3" type="curve" smooth="yes"/>
      <point x="234.7" y="1500.3"/>
      <point x="184.1" y="1464.1"/>
      <point x="184.1" y="1372.8" type="curve" smooth="yes"/>
      <point x="184.1" y="1282.2"/>
      <point x="234" y="1244.7"/>
    </contour>
    <contour>
      <point x="831.3" y="1244.7" type="curve" smooth="yes"/>
      <point x="903.5" y="1244.7"/>
      <point x="956.2" y="1282.9"/>
      <point x="956.2" y="1372.1" type="curve" smooth="yes"/>
      <point x="956.2" y="1462"/>
      <point x="903.5" y="1500.3"/>
      <point x="830.6" y="1500.3" type="curve" smooth="yes"/>
      <point x="754.1" y="1500.3"/>
      <point x="709.4" y="1457.8"/>
      <point x="709.4" y="1372.8" type="curve" smooth="yes"/>
      <point x="709.4" y="1282.9"/>
      <point x="759.7" y="1244.7"/>
    </contour>
    <contour>
      <point x="570.3" y="1114.4" type="move" name="_top"/>
    </contour>
  </outline>
</glyph>
<glyph name="anoteleia" format="1">
  <advance width="553"/>
  <unicode hex="0387"/>
  <note>
    anoteleia
  </note>
  <outline>
    <contour>
      <point x="276.1" y="559" type="curve" smooth="yes"/>
      <point x="381.4" y="559"/>
      <point x="442.3" y="619.1"/>
      <point x="442.3" y="723.1" type="curve" smooth="yes"/>
      <point x="442.3" y="828.7"/>
      <point x="384.9" y="886.8"/>
      <point x="276.1" y="886.8" type="curve" smooth="yes"/>
      <point x="167.4" y="886.8"/>
      <point x="110.6" y="827"/>
      <point x="110.6" y="723.1" type="curve" smooth="yes"/>
      <point x="110.6" y="619.9"/>
      <point x="168.1" y="559"/>
    </contour>
  </outline>
</glyph>
<glyph name="Omega" format="1">
  <advance width="1229"/>
  <unicode hex="03A9"/>
  <note>
    uni03A9
  </note>
  <outline>
    <contour>
      <point x="36.6" y="0" type="line"/>
      <point x="545.1" y="0" type="line"/>
      <point x="545.1" y="235.8" type="line"/>
      <point x="419.8" y="379.9"/>
      <point x="366.6" y="548.6"/>
      <point x="366.6" y="808.9" type="curve" smooth="yes"/>
      <point x="366.6" y="1092.2"/>
      <point x="439.4" y="1244.8"/>
      <point x="614.5" y="1244.8" type="curve" smooth="yes"/>
      <point x="786.8" y="1244.8"/>
      <point x="860" y="1092.4"/>
      <point x="860" y="811" type="curve" smooth="yes"/>
      <point x="860" y="543.7"/>
      <point x="806.6" y="373.1"/>
      <point x="688.1" y="235.8" type="curve"/>
      <point x="688.1" y="0" type="line"/>
      <point x="1191.7" y="0" type="line"/>
      <point x="1191.7" y="241.7" type="line"/>
      <point x="904.9" y="241.7" type="line"/>
      <point x="973.9" y="309.9"/>
      <point x="1027.9" y="387.2"/>
      <point x="1066.1" y="474.6" type="curve" smooth="yes"/>
      <point x="1114.5" y="583.1"/>
      <point x="1138.7" y="706.3"/>
      <point x="1138.7" y="843.9" type="curve" smooth="yes"/>
      <point x="1138.7" y="1054.3"/>
      <point x="1084.8" y="1220.8"/>
      <point x="987" y="1330.6" type="curve" smooth="yes"/>
      <point x="898" y="1430.1"/>
      <point x="771.197" y="1485.1"/>
      <point x="614.5" y="1485.1" type="curve" smooth="yes"/>
      <point x="461.2" y="1485.1"/>
      <point x="336.8" y="1432.7"/>
      <point x="246.8" y="1337.5" type="curve" smooth="yes"/>
      <point x="143.6" y="1226.9"/>
      <point x="87.5" y="1058.6"/>
      <point x="87.5" y="846" type="curve" smooth="yes"/>
      <point x="87.5" y="711.3"/>
      <point x="110.4" y="590.7"/>
      <point x="155.9" y="484.6" type="curve" smooth="yes"/>
      <point x="195.8" y="393.3"/>
      <point x="252.3" y="313"/>
      <point x="326.9" y="241.7" type="curve"/>
      <point x="36.6" y="241.7" type="line"/>
    </contour>
    <contour>
      <point x="615.2" y="0" type="move" name="bottom"/>
    </contour>
    <contour>
      <point x="168" y="1503.7" type="move" name="topleft"/>
    </contour>
  </outline>
</glyph>
<glyph name="eta" format="1">
  <advance width="1038"/>
  <unicode hex="03B7"/>
  <note>
    eta
  </note>
  <outline>
    <contour>
      <point x="667.9" y="-492" type="line"/>
      <point x="936.2" y="-492" type="line"/>
      <point x="936.2" y="726.9" type="line" smooth="yes"/>
      <point x="936.2" y="993.4"/>
      <point x="838.9" y="1135.4"/>
      <point x="626.8" y="1135.4" type="curve" smooth="yes"/>
      <point x="520.7" y="1135.4"/>
      <point x="420.7" y="1077.3"/>
      <point x="372.9" y="971.1" type="curve"/>
      <point x="356.2" y="971.1" type="line"/>
      <point x="323.7" y="1114.4" type="line"/>
      <point x="112.8" y="1114.4" type="line"/>
      <point x="112.8" y="0" type="line"/>
      <point x="379.3" y="0" type="line"/>
      <point x="379.3" y="534.4" type="line" smooth="yes"/>
      <point x="379.3" y="670.5"/>
      <point x="391.5" y="767"/>
      <point x="419.3" y="824.1" type="curve" smooth="yes"/>
      <point x="446.8" y="881.3"/>
      <point x="485" y="908.8"/>
      <point x="547.8" y="908.8" type="curve" smooth="yes"/>
      <point x="632.4" y="908.8"/>
      <point x="667.9" y="822.3"/>
      <point x="667.9" y="664.7" type="curve" smooth="yes"/>
    </contour>
    <contour>
      <point x="518.3" y="1114.4" type="move" name="top"/>
    </contour>
  </outline>
</glyph>
<glyph name="omicron" format="1">
  <advance width="1012"/>
  <unicode hex="03BF"/>
  <note>
    omicron
  </note>
  <outline>
    <contour>
      <point x="506.7" y="-20" type="curve" smooth="yes"/>
      <point x="772.8" y="-20"/>
      <point x="937.3" y="198.1"/>
      <point x="937.3" y="555.6" type="curve" smooth="yes"/>
      <point x="937.3" y="911.8"/>
      <point x="773.8" y="1135.4"/>
      <point x="504.4" y="1135.4" type="curve" smooth="yes"/>
      <point x="234.5" y="1135.4"/>
      <point x="73.7" y="912.3"/>
      <point x="73.7" y="565.8" type="curve" smooth="yes"/>
      <point x="73.7" y="359.3"/>
      <point x="130.4" y="180.8"/>
      <point x="244.7" y="76.9" type="curve" smooth="yes"/>
      <point x="312.4" y="15.2"/>
      <point x="399.6" y="-20"/>
    </contour>
    <contour>
      <point x="505.2" y="206.5" type="curve" smooth="yes"/>
      <point x="365.1" y="206.5"/>
      <point x="346.3" y="380.4"/>
      <point x="346.3" y="550.5" type="curve" smooth="yes"/>
      <point x="346.3" y="739.8"/>
      <point x="369.1" y="906.8"/>
      <point x="505.6" y="906.8" type="curve" smooth="yes"/>
      <point x="641.9" y="906.8"/>
      <point x="666.1" y="748.5"/>
      <point x="666.1" y="557.2" type="curve" smooth="yes"/>
      <point x="666.1" y="382.9"/>
      <point x="635.5" y="206.5"/>
    </contour>
    <contour>
      <point x="505.5" y="1114.4" type="move" name="top"/>
    </contour>
  </outline>
</glyph>
<glyph name="be-cy" format="1">
  <advance width="1012"/>
  <unicode hex="0431"/>
  <note>
    afii10066
  </note>
  <outline>
    <contour>
      <point x="506.7" y="-20" type="curve" smooth="yes"/>
      <point x="777.8" y="-20"/>
      <point x="938" y="193.7"/>
      <point x="938" y="545.1" type="curve" smooth="yes"/>
      <point x="938" y="857.3"/>
      <point x="814.1" y="1038.2"/>
      <point x="607.1" y="1038.2" type="curve" smooth="yes"/>
      <point x="490.6" y="1038.2"/>
      <point x="404.1" y="976.8"/>
      <point x="342.5" y="867.9" type="curve"/>
      <point x="334.5" y="867.9" type="line"/>
      <point x="339.5" y="965.9"/>
      <point x="356.7" y="1043.4"/>
      <point x="384" y="1101.1" type="curve" smooth="yes"/>
      <point x="446.9" y="1232.1"/>
      <point x="558.2" y="1270"/>
      <point x="761.6" y="1305.1" type="curve"/>
      <point x="819" y="1314.3"/>
      <point x="878.3" y="1324.2"/>
      <point x="937.8" y="1332.8" type="curve"/>
      <point x="907.4" y="1567.9" type="line"/>
      <point x="752.1" y="1547.4"/>
      <point x="657.9" y="1532.5"/>
      <point x="575.8" y="1513.4" type="curve" smooth="yes"/>
      <point x="516.4" y="1499.9"/>
      <point x="463.3" y="1481.3"/>
      <point x="417.1" y="1457.6" type="curve" smooth="yes"/>
      <point x="329.6" y="1413.5"/>
      <point x="259.3" y="1351.9"/>
      <point x="206.5" y="1270.2" type="curve" smooth="yes"/>
      <point x="115.9" y="1131"/>
      <point x="73.8" y="934"/>
      <point x="73.8" y="673.2" type="curve" smooth="yes"/>
      <point x="73.8" y="285.6"/>
      <point x="181.6" y="-20"/>
    </contour>
    <contour>
      <point x="515" y="207.4" type="curve" smooth="yes"/>
      <point x="465.8" y="207.4"/>
      <point x="424.4" y="238.8"/>
      <point x="397.8" y="297.1" type="curve" smooth="yes"/>
      <point x="362.8" y="370.1"/>
      <point x="347.3" y="498.7"/>
      <point x="346.4" y="658.5" type="curve"/>
      <point x="376.4" y="756"/>
      <point x="455.3" y="826.8"/>
      <point x="525.7" y="826.8" type="curve" smooth="yes"/>
      <point x="623.1" y="826.8"/>
      <point x="665.7" y="725.3"/>
      <point x="665.7" y="526.2" type="curve" smooth="yes"/>
      <point x="665.7" y="313.3"/>
      <point x="617.7" y="207.4"/>
    </contour>
  </outline>
</glyph>
<glyph name="ge-cy" format="1">
  <advance width="729"/>
  <unicode hex="0433"/>
  <note>
    afii10068
  </note>
  <outline>
    <contour>
      <point x="112.8" y="0" type="line"/>
      <point x="379.3" y="0" type="line"/>
      <point x="379.3" y="899.1" type="line"/>
      <point x="692.6" y="899.1" type="line"/>
      <point x="692.6" y="1114.4" type="line"/>
      <point x="112.8" y="1114.4" type="line"/>
    </contour>
    <contour>
      <point x="708.5" y="0" type="move" name="bottomright"/>
    </contour>
    <contour>
      <point x="392.7" y="1114.4" type="move" name="top"/>
    </contour>
  </outline>
</glyph>
<glyph name="em-cy" format="1">
  <advance width="1374"/>
  <unicode hex="043C"/>
  <note>
    afii10078
  </note>
  <outline>
    <contour>
      <point x="112.8" y="0" type="line"/>
      <point x="345.9" y="0" type="line"/>
      <point x="345.9" y="629.6" type="line" smooth="yes"/>
      <point x="345.9" y="718.799"/>
      <point x="347.178" y="807.762"/>
      <point x="347.024" y="898.932" type="curve"/>
      <point x="371.752" y="773.766"/>
      <point x="397.805" y="659.726"/>
      <point x="428.7" y="543" type="curve" smooth="yes"/>
      <point x="477" y="361.9"/>
      <point x="524.3" y="181.1"/>
      <point x="572.6" y="0" type="curve"/>
      <point x="796.3" y="0" type="line"/>
      <point x="843.7" y="178.1"/>
      <point x="890.7" y="356.5"/>
      <point x="938.1" y="534.6" type="curve" smooth="yes"/>
      <point x="969.895" y="654.026"/>
      <point x="996.547" y="771.066"/>
      <point x="1022.176" y="898.932" type="curve"/>
      <point x="1022.022" y="811.962"/>
      <point x="1023.6" y="722.399"/>
      <point x="1023.6" y="627.8" type="curve" smooth="yes"/>
      <point x="1023.6" y="0" type="line"/>
      <point x="1257.6" y="0" type="line"/>
      <point x="1257.6" y="1114.4" type="line"/>
      <point x="874.9" y="1114.4" type="line"/>
      <point x="741.2" y="593.8" type="line" smooth="yes"/>
      <point x="717.6" y="502.2"/>
      <point x="688.7" y="356.5"/>
      <point x="684.3" y="269.8" type="curve"/>
      <point x="677.2" y="370.3"/>
      <point x="649.8" y="513.9"/>
      <point x="628.9" y="594.7" type="curve" smooth="yes"/>
      <point x="495.8" y="1114.4" type="line"/>
      <point x="112.8" y="1114.4" type="line"/>
    </contour>
  </outline>
</glyph>
<glyph name="pe-cy" format="1">
  <advance width="1061"/>
  <unicode hex="043F"/>
  <note>
    afii10081
  </note>
  <outline>
    <contour>
      <point x="112.8" y="0" type="line"/>
      <point x="379.3" y="0" type="line"/>
      <point x="379.3" y="898.9" type="line"/>
      <point x="680.1" y="898.9" type="line"/>
      <point x="680.1" y="0" type="line"/>
      <point x="948.4" y="0" type="line"/>
      <point x="948.4" y="1114.4" type="line"/>
      <point x="112.8" y="1114.4" type="line"/>
    </contour>
    <contour>
      <point x="1040.8" y="0" type="move" name="bottomright"/>
    </contour>
  </outline>
</glyph>
<glyph name="che-cy" format="1">
  <advance width="1036"/>
  <unicode hex="0447"/>
  <note>
    afii10089
  </note>
  <outline>
    <contour>
      <point x="657.3" y="0" type="line"/>
      <point x="925.6" y="0" type="line"/>
      <point x="925.6" y="1114.4" type="line"/>
      <point x="657.3" y="1114.4" type="line"/>
      <point x="657.3" y="632.9" type="line"/>
      <point x="599.8" y="585.1"/>
      <point x="547.8" y="552.7"/>
      <point x="472.7" y="552.7" type="curve" smooth="yes"/>
      <point x="401.1" y="552.7"/>
      <point x="368.9" y="596.6"/>
      <point x="368.9" y="700" type="curve" smooth="yes"/>
      <point x="368.9" y="1114.4" type="line"/>
      <point x="102" y="1114.4" type="line"/>
      <point x="102" y="678.6" type="line" smooth="yes"/>
      <point x="102" y="456.8"/>
      <point x="198.4" y="343.6"/>
      <point x="381" y="343.6" type="curve" smooth="yes"/>
      <point x="473.6" y="343.6"/>
      <point x="565.5" y="380.5"/>
      <point x="657.3" y="451.1" type="curve"/>
    </contour>
    <contour>
      <point x="1016.3" y="0" type="move" name="bottomright"/>
    </contour>
    <contour>
      <point x="517.8" y="1114.4" type="move" name="top"/>
    </contour>
  </outline>
</glyph>
<glyph name="softsign-cy" format="1">
  <advance width="967"/>
  <unicode hex="044C"/>
  <note>
    afii10094
  </note>
  <outline>
    <contour>
      <point x="112.8" y="0" type="line"/>
      <point x="465.1" y="0" type="line" smooth="yes"/>
      <point x="759.9" y="0"/>
      <point x="906.5" y="117.6"/>
      <point x="906.5" y="351.9" type="curve" smooth="yes"/>
      <point x="906.5" y="570.7"/>
      <point x="769.8" y="677.9"/>
      <point x="472.7" y="677.9" type="curve" smooth="yes"/>
      <point x="379.3" y="677.9" type="line"/>
      <point x="379.3" y="1114.4" type="line"/>
      <point x="112.8" y="1114.4" type="line"/>
    </contour>
    <contour>
      <point x="379.3" y="198.7" type="line"/>
      <point x="379.3" y="479.2" type="line"/>
      <point x="455.2" y="479.2" type="line" smooth="yes"/>
      <point x="578.9" y="479.2"/>
      <point x="633.2" y="440.5"/>
      <point x="633.2" y="346.3" type="curve" smooth="yes"/>
      <point x="633.2" y="238.8"/>
      <point x="569.8" y="198.7"/>
      <point x="458.8" y="198.7" type="curve" smooth="yes"/>
    </contour>
  </outline>
</glyph>
<glyph name="iu-cy" format="1">
  <advance width="1448"/>
  <unicode hex="044E"/>
  <note>
    afii10096
  </note>
  <outline>
    <contour>
      <point x="956.6" y="-20" type="curve" smooth="yes"/>
      <point x="1221.8" y="-20"/>
      <point x="1374.4" y="192.4"/>
      <point x="1374.4" y="559" type="curve" smooth="yes"/>
      <point x="1374.4" y="925.8"/>
      <point x="1220.5" y="1135.4"/>
      <point x="959.9" y="1135.4" type="curve" smooth="yes"/>
      <point x="721.4" y="1135.4"/>
      <point x="573.7" y="969.7"/>
      <point x="545.5" y="680" type="curve"/>
      <point x="379.3" y="680" type="line"/>
      <point x="379.3" y="1114.4" type="line"/>
      <point x="112.8" y="1114.4" type="line"/>
      <point x="112.8" y="0" type="line"/>
      <point x="379.3" y="0" type="line"/>
      <point x="379.3" y="467.3" type="line"/>
      <point x="542.7" y="467.3" type="line"/>
      <point x="567.4" y="149.2"/>
      <point x="723" y="-20"/>
    </contour>
    <contour>
      <point x="957.9" y="207.4" type="curve" smooth="yes"/>
      <point x="859.7" y="207.4"/>
      <point x="811.5" y="320.5"/>
      <point x="811.5" y="559" type="curve" smooth="yes"/>
      <point x="811.5" y="671.9"/>
      <point x="822.2" y="763"/>
      <point x="845.7" y="821" type="curve" smooth="yes"/>
      <point x="867.8" y="875.5"/>
      <point x="905.3" y="906.8"/>
      <point x="957.2" y="906.8" type="curve" smooth="yes"/>
      <point x="1001.4" y="906.8"/>
      <point x="1042.1" y="883.3"/>
      <point x="1066.2" y="821.3" type="curve" smooth="yes"/>
      <point x="1091.4" y="762.5"/>
      <point x="1102.1" y="665.7"/>
      <point x="1102.1" y="559.7" type="curve" smooth="yes"/>
      <point x="1102.1" y="446.5"/>
      <point x="1090.1" y="349.3"/>
      <point x="1066.5" y="295.7" type="curve" smooth="yes"/>
      <point x="1046.2" y="240.8"/>
      <point x="1010" y="207.4"/>
    </contour>
    <contour>
      <point x="723.5" y="1114.4" type="move" name="top"/>
    </contour>
  </outline>
</glyph>
<glyph name="nje-cy" format="1">
  <advance width="1505"/>
  <unicode hex="045A"/>
  <note>
    afii10107
  </note>
  <outline>
    <contour>
      <point x="112.8" y="0" type="line"/>
      <point x="379.3" y="0" type="line"/>
      <point x="379.3" y="467.3" type="line"/>
      <point x="647.4" y="467.3" type="line"/>
      <point x="647.4" y="0" type="line"/>
      <point x="1003.9" y="0" type="line" smooth="yes"/>
      <point x="1299.4" y="0"/>
      <point x="1446" y="117.6"/>
      <point x="1446" y="351.9" type="curve" smooth="yes"/>
      <point x="1446" y="570.7"/>
      <point x="1307.2" y="677.9"/>
      <point x="1011.5" y="677.9" type="curve" smooth="yes"/>
      <point x="914.6" y="677.9" type="line"/>
      <point x="914.6" y="1114.4" type="line"/>
      <point x="647.4" y="1114.4" type="line"/>
      <point x="647.4" y="680" type="line"/>
      <point x="379.3" y="680" type="line"/>
      <point x="379.3" y="1114.4" type="line"/>
      <point x="112.8" y="1114.4" type="line"/>
    </contour>
    <contour>
      <point x="914.6" y="198.7" type="line"/>
      <point x="914.6" y="479.2" type="line"/>
      <point x="990.5" y="479.2" type="line" smooth="yes"/>
      <point x="1116.3" y="479.2"/>
      <point x="1170.6" y="440.5"/>
      <point x="1170.6" y="346.3" type="curve" smooth="yes"/>
      <point x="1170.6" y="238.8"/>
      <point x="1107.9" y="198.7"/>
      <point x="994.8" y="198.7" type="curve" smooth="yes"/>
    </contour>
  </outline>
</glyph>
<glyph name="dzhe-cy" format="1">
  <advance width="1059"/>
  <unicode hex="045F"/>
  <note>
    afii10193
  </note>
  <outline>
    <contour>
      <point x="397.9" y="-397.7" type="line"/>
      <point x="662" y="-397.7" type="line"/>
      <point x="662" y="0" type="line"/>
      <point x="945.6" y="0" type="line"/>
      <point x="945.6" y="1114.4" type="line"/>
      <point x="678" y="1114.4" type="line"/>
      <point x="678" y="214.6" type="line"/>
      <point x="379.3" y="214.6" type="line"/>
      <point x="379.3" y="1114.4" type="line"/>
      <point x="112.8" y="1114.4" type="line"/>
      <point x="112.8" y="0" type="line"/>
      <point x="397.9" y="0" type="line"/>
    </contour>
  </outline>
</glyph>
<glyph name="Yat-cy" format="1">
  <advance width="1063"/>
  <unicode hex="0462"/>
  <note>
    afii10146
  </note>
  <outline>
    <contour>
      <point x="220" y="0" type="line"/>
      <point x="546" y="0" type="line" smooth="yes"/>
      <point x="849" y="0"/>
      <point x="1005" y="155"/>
      <point x="1005" y="451" type="curve" smooth="yes"/>
      <point x="1005" y="732"/>
      <point x="842" y="891"/>
      <point x="558" y="891" type="curve" smooth="yes"/>
      <point x="493" y="891" type="line"/>
      <point x="493" y="1123" type="line"/>
      <point x="731" y="1123" type="line"/>
      <point x="731" y="1338" type="line"/>
      <point x="493" y="1338" type="line"/>
      <point x="493" y="1556" type="line"/>
      <point x="220" y="1556" type="line"/>
      <point x="220" y="1338" type="line"/>
      <point x="6" y="1338" type="line"/>
      <point x="6" y="1123" type="line"/>
      <point x="220" y="1123" type="line"/>
    </contour>
    <contour>
      <point x="493" y="236" type="line"/>
      <point x="493" y="653" type="line"/>
      <point x="527" y="653" type="line" smooth="yes"/>
      <point x="677" y="653"/>
      <point x="730" y="593"/>
      <point x="730" y="451" type="curve" smooth="yes"/>
      <point x="730" y="295"/>
      <point x="666" y="236"/>
      <point x="546" y="236" type="curve" smooth="yes"/>
    </contour>
  </outline>
</glyph>
<glyph name="Koppa-cy" format="1">
  <advance width="946"/>
  <unicode hex="0480"/>
  <note>
    uni0480
  </note>
  <outline>
    <contour>
      <point x="524.1" y="-492" type="line"/>
      <point x="794.6" y="-492" type="line"/>
      <point x="794.6" y="259.9" type="line"/>
      <point x="738.5" y="233.6"/>
      <point x="686.7" y="218.9"/>
      <point x="617.6" y="218.9" type="curve" smooth="yes"/>
      <point x="450" y="218.9"/>
      <point x="361.4" y="388.7"/>
      <point x="361.4" y="734.4" type="curve" smooth="yes"/>
      <point x="361.4" y="1050"/>
      <point x="456.5" y="1245.4"/>
      <point x="609.4" y="1245.4" type="curve" smooth="yes"/>
      <point x="692.4" y="1245.4"/>
      <point x="759.9" y="1204.4"/>
      <point x="819.2" y="1162.7" type="curve"/>
      <point x="909.2" y="1384.5" type="line"/>
      <point x="795.8" y="1456.3"/>
      <point x="707.9" y="1482.9"/>
      <point x="593.3" y="1482.9" type="curve" smooth="yes"/>
      <point x="280.6" y="1482.9"/>
      <point x="84.4" y="1202.8"/>
      <point x="84.4" y="732.9" type="curve" smooth="yes"/>
      <point x="84.4" y="597.7"/>
      <point x="95.8" y="484.3"/>
      <point x="119.7" y="386.1" type="curve" smooth="yes"/>
      <point x="182.5" y="126.7"/>
      <point x="323.4" y="-12.3"/>
      <point x="525.5" y="-13.7" type="curve"/>
      <point x="526.9" y="-12.3"/>
      <point x="526.9" y="-10.7"/>
      <point x="524.1" y="-7.8" type="curve"/>
    </contour>
  </outline>
</glyph>
<glyph name="titlocomb-cy" format="1">
  <advance width="1106"/>
  <unicode hex="0483"/>
  <note>
    uni0483
  </note>
  <outline>
    <contour>
      <point x="271" y="1151" type="curve" smooth="yes"/>
      <point x="332" y="1151"/>
      <point x="368" y="1181"/>
      <point x="377" y="1245" type="curve"/>
      <point x="834" y="1245" type="line" smooth="yes"/>
      <point x="906" y="1245"/>
      <point x="943" y="1286"/>
      <point x="943" y="1368" type="curve" smooth="yes"/>
      <point x="943" y="1444"/>
      <point x="907" y="1481"/>
      <point x="836" y="1481" type="curve" smooth="yes"/>
      <point x="773" y="1481"/>
      <point x="736" y="1451"/>
      <point x="730" y="1387" type="curve"/>
      <point x="273" y="1387" type="line" smooth="yes"/>
      <point x="196" y="1387"/>
      <point x="166" y="1350"/>
      <point x="166" y="1274" type="curve" smooth="yes"/>
      <point x="166" y="1191"/>
      <point x="203" y="1151"/>
    </contour>
  </outline>
</glyph>
<glyph name="palatalizationcomb-cy" format="1">
  <advance width="1145"/>
  <unicode hex="0484"/>
  <note>
    uni0484
  </note>
  <outline>
    <contour>
      <point x="831" y="1240" type="line"/>
      <point x="1005" y="1240" type="line"/>
      <point x="1006" y="1254"/>
      <point x="1006" y="1269"/>
      <point x="1005" y="1289" type="curve" smooth="yes"/>
      <point x="1001" y="1457"/>
      <point x="927" y="1544"/>
      <point x="775" y="1544" type="curve" smooth="yes"/>
      <point x="693" y="1544"/>
      <point x="614" y="1519"/>
      <point x="527" y="1485" type="curve" smooth="yes"/>
      <point x="411" y="1438"/>
      <point x="335" y="1425"/>
      <point x="221" y="1425" type="curve"/>
      <point x="221" y="1244" type="line"/>
      <point x="265" y="1244" type="line"/>
      <point x="305" y="1244"/>
      <point x="347" y="1249"/>
      <point x="383" y="1258" type="curve" smooth="yes"/>
      <point x="453" y="1268"/>
      <point x="511" y="1284"/>
      <point x="617" y="1325" type="curve" smooth="yes"/>
      <point x="665" y="1344"/>
      <point x="696" y="1354"/>
      <point x="732" y="1354" type="curve" smooth="yes"/>
      <point x="802" y="1354"/>
      <point x="830" y="1318"/>
      <point x="831" y="1242" type="curve"/>
    </contour>
  </outline>
</glyph>
<glyph name="dasiapneumatacomb-cy" format="1">
  <advance width="1096"/>
  <unicode hex="0485"/>
  <note>
    uni0485
  </note>
  <outline>
    <contour>
      <point x="717" y="1223" type="curve"/>
      <point x="717" y="1308" type="line"/>
      <point x="638" y="1329"/>
      <point x="599" y="1374"/>
      <point x="599" y="1407" type="curve" smooth="yes"/>
      <point x="599" y="1428"/>
      <point x="616" y="1438"/>
      <point x="658" y="1452" type="curve" smooth="yes"/>
      <point x="689" y="1463"/>
      <point x="715" y="1474"/>
      <point x="715" y="1517" type="curve" smooth="yes"/>
      <point x="715" y="1577"/>
      <point x="663" y="1618"/>
      <point x="580" y="1618" type="curve" smooth="yes"/>
      <point x="476" y="1618"/>
      <point x="420" y="1554"/>
      <point x="420" y="1465" type="curve" smooth="yes"/>
      <point x="420" y="1335"/>
      <point x="545" y="1237"/>
    </contour>
  </outline>
</glyph>
<glyph name="psilipneumatacomb-cy" format="1">
  <advance width="1096"/>
  <unicode hex="0486"/>
  <note>
    uni0486
  </note>
  <outline>
    <contour>
      <point x="420" y="1223" type="line"/>
      <point x="582" y="1235"/>
      <point x="716" y="1334"/>
      <point x="716" y="1465" type="curve" smooth="yes"/>
      <point x="716" y="1550"/>
      <point x="663" y="1618"/>
      <point x="557" y="1618" type="curve" smooth="yes"/>
      <point x="479" y="1618"/>
      <point x="421" y="1582"/>
      <point x="421" y="1516" type="curve" smooth="yes"/>
      <point x="421" y="1481"/>
      <point x="436" y="1465"/>
      <point x="480" y="1451" type="curve" smooth="yes"/>
      <point x="511" y="1441"/>
      <point x="537" y="1431"/>
      <point x="537" y="1406" type="curve" smooth="yes"/>
      <point x="537" y="1375"/>
      <point x="500" y="1330"/>
      <point x="420" y="1308" type="curve"/>
    </contour>
  </outline>
</glyph>
<glyph name="millionssigncomb-cy" format="1">
  <advance width="1950"/>
  <unicode hex="0489"/>
  <note>
    uni0489
  </note>
  <outline>
    <contour>
      <point x="877" y="1141" type="line"/>
      <point x="1015.9" y="1141" type="line"/>
      <point x="1034.1" y="1251.6"/>
      <point x="1054.5" y="1358.8"/>
      <point x="1085.2" y="1491.1" type="curve"/>
      <point x="989.4" y="1491.1" type="line"/>
      <point x="947.5" y="1403.7"/>
      <point x="890.7" y="1250.5"/>
      <point x="865.8" y="1154.7" type="curve"/>
    </contour>
    <contour>
      <point x="1421.5" y="903.1" type="line"/>
      <point x="1484.4" y="949.5"/>
      <point x="1576.8" y="1012.9"/>
      <point x="1714" y="1099.3" type="curve"/>
      <point x="1644.6" y="1171.2" type="line"/>
      <point x="1516" y="1122.5"/>
      <point x="1409.9" y="1071.7"/>
      <point x="1324.9" y="1021.6" type="curve"/>
      <point x="1321.1" y="1004.1" type="line"/>
    </contour>
    <contour>
      <point x="1911.6" y="449.5" type="curve"/>
      <point x="1911.6" y="547.4" type="line"/>
      <point x="1812.9" y="591.2"/>
      <point x="1673.6" y="645.6"/>
      <point x="1576.6" y="670.4" type="curve"/>
      <point x="1558.7" y="657.8" type="line"/>
      <point x="1558.7" y="519.6" type="line"/>
      <point x="1626.7" y="509.3"/>
      <point x="1751.1" y="486.6"/>
    </contour>
    <contour>
      <point x="1564.5" y="-201" type="curve"/>
      <point x="1632.1" y="-130.9" type="line"/>
      <point x="1593.5" y="-31.7"/>
      <point x="1527.8" y="107.1"/>
      <point x="1479.1" y="188.9" type="curve"/>
      <point x="1462.3" y="189.9" type="line"/>
      <point x="1364.1" y="91.6" type="line"/>
      <point x="1431.6" y="1.2"/>
      <point x="1487.8" y="-80.8"/>
    </contour>
    <contour>
      <point x="865.7" y="-385.1" type="curve"/>
      <point x="963.6" y="-385.1" type="line"/>
      <point x="1016.7" y="-268.3"/>
      <point x="1058.1" y="-156.4"/>
      <point x="1085.8" y="-48.7" type="curve"/>
      <point x="1075.3" y="-35" type="line"/>
      <point x="935.7" y="-35" type="line"/>
      <point x="925.2" y="-116.9"/>
      <point x="904.1" y="-226.2"/>
    </contour>
    <contour>
      <point x="302.1" y="-123.2" type="line"/>
      <point x="415.4" y="-81.5"/>
      <point x="523.5" y="-30.1"/>
      <point x="626.7" y="28.9" type="curve"/>
      <point x="629.1" y="44.6" type="line"/>
      <point x="529.5" y="142.8" type="line"/>
      <point x="457.7" y="91"/>
      <point x="353.8" y="20.3"/>
      <point x="234.8" y="-55.6" type="curve"/>
    </contour>
    <contour>
      <point x="373" y="442" type="curve"/>
      <point x="386.7" y="452.5" type="line"/>
      <point x="386.7" y="592.5" type="line"/>
      <point x="304.3" y="603"/>
      <point x="200.5" y="623"/>
      <point x="36.6" y="662.1" type="curve"/>
      <point x="36.6" y="564.9" type="line"/>
      <point x="142.2" y="517.4"/>
      <point x="284.2" y="464.8"/>
    </contour>
    <contour>
      <point x="486.7" y="876.3" type="line"/>
      <point x="586.3" y="974.5" type="line"/>
      <point x="534.2" y="1043.9"/>
      <point x="479.1" y="1123.9"/>
      <point x="387.9" y="1272" type="curve"/>
      <point x="318.9" y="1201.9" type="line"/>
      <point x="348" y="1123.6"/>
      <point x="418.3" y="968.6"/>
      <point x="471" y="878.7" type="curve"/>
    </contour>
  </outline>
</glyph>
<glyph name="Ertick-cy" format="1">
  <advance width="981"/>
  <unicode hex="048E"/>
  <note>
    uni048E
  </note>
  <outline>
    <contour>
      <point x="662.1" y="356.6" type="line"/>
      <point x="778.7" y="406.8" type="line"/>
      <point x="563.3" y="954.6" type="line"/>
      <point x="445.3" y="907.1" type="line"/>
    </contour>
    <component base="P"/>
  </outline>
</glyph>
<glyph name="Kastroke-cy" format="1">
  <advance width="1053"/>
  <unicode hex="049E"/>
  <note>
    uni049E
  </note>
  <outline>
    <contour>
      <point x="140.4" y="0" type="line"/>
      <point x="414.1" y="0" type="line"/>
      <point x="414.1" y="515.6" type="line"/>
      <point x="522.2" y="625.4" type="line"/>
      <point x="759.8" y="0" type="line"/>
      <point x="1053.2" y="0" type="line"/>
      <point x="710.7" y="829.5" type="line"/>
      <point x="1047.6" y="1462" type="line"/>
      <point x="757.9" y="1462" type="line"/>
      <point x="654.2" y="1257.1"/>
      <point x="568.6" y="1087.1"/>
      <point x="506.1" y="956.2" type="curve" smooth="yes"/>
      <point x="469.1" y="883.6"/>
      <point x="428.9" y="788.4"/>
      <point x="414.1" y="737.7" type="curve"/>
      <point x="414.1" y="1069.3" type="line"/>
      <point x="539.2" y="1069.3" type="line"/>
      <point x="539.2" y="1304.9" type="line"/>
      <point x="414.1" y="1304.9" type="line"/>
      <point x="414.1" y="1462" type="line"/>
      <point x="140.4" y="1462" type="line"/>
      <point x="140.4" y="1304.9" type="line"/>
      <point x="33.3" y="1304.9" type="line"/>
      <point x="33.3" y="1069.3" type="line"/>
      <point x="140.4" y="1069.3" type="line"/>
    </contour>
  </outline>
</glyph>
<glyph name="haabkhasian-cy" format="1">
  <advance width="1049"/>
  <unicode hex="04A9"/>
  <note>
    uni04A9
  </note>
  <outline>
    <contour>
      <point x="860.6" y="-70.5" type="curve" smooth="yes"/>
      <point x="912.5" y="-70.5"/>
      <point x="955.8" y="-61.3"/>
      <point x="994.8" y="-43.9" type="curve"/>
      <point x="994.8" y="160.3" type="line"/>
      <point x="954.6" y="146"/>
      <point x="922.1" y="141.3"/>
      <point x="893.4" y="141.3" type="curve" smooth="yes"/>
      <point x="872" y="141.3"/>
      <point x="849" y="150.6"/>
      <point x="842.8" y="160.3" type="curve"/>
      <point x="840.2" y="138.8" type="line"/>
      <point x="924.7" y="213.4"/>
      <point x="973.2" y="336"/>
      <point x="973.2" y="491.5" type="curve" smooth="yes"/>
      <point x="973.2" y="717.9"/>
      <point x="867.6" y="831.4"/>
      <point x="705.7" y="831.4" type="curve" smooth="yes"/>
      <point x="521.9" y="831.4"/>
      <point x="427.8" y="724.5"/>
      <point x="427.8" y="500.8" type="curve" smooth="yes"/>
      <point x="427.8" y="377.5"/>
      <point x="462.3" y="294.3"/>
      <point x="525.7" y="192.8" type="curve"/>
      <point x="526.5" y="217.3" type="line"/>
      <point x="518.3" y="209.8"/>
      <point x="503" y="206.5"/>
      <point x="483.7" y="206.5" type="curve" smooth="yes"/>
      <point x="443.2" y="207.2"/>
      <point x="398.7" y="231.8"/>
      <point x="370.1" y="287.9" type="curve" smooth="yes"/>
      <point x="338.7" y="337.9"/>
      <point x="316.9" y="430.1"/>
      <point x="316.9" y="539.9" type="curve" smooth="yes"/>
      <point x="316.9" y="669.9"/>
      <point x="335" y="762.7"/>
      <point x="371.6" y="820" type="curve" smooth="yes"/>
      <point x="400.6" y="880.7"/>
      <point x="446.3" y="906.8"/>
      <point x="502.9" y="906.8" type="curve" smooth="yes"/>
      <point x="536" y="906.8"/>
      <point x="570.8" y="898"/>
      <point x="628.9" y="878.7" type="curve"/>
      <point x="678.3" y="1094.7" type="line"/>
      <point x="630.6" y="1118.2"/>
      <point x="550.6" y="1135.4"/>
      <point x="507" y="1135.4" type="curve" smooth="yes"/>
      <point x="225.4" y="1135.4"/>
      <point x="73.7" y="924.1"/>
      <point x="73.7" y="546.2" type="curve" smooth="yes"/>
      <point x="73.7" y="336"/>
      <point x="135.3" y="172"/>
      <point x="235.9" y="75.9" type="curve" smooth="yes"/>
      <point x="300.4" y="14"/>
      <point x="382.2" y="-20"/>
      <point x="474.7" y="-20" type="curve" smooth="yes"/>
      <point x="544.9" y="-20"/>
      <point x="603.5" y="-10.6"/>
      <point x="647" y="10.3" type="curve"/>
      <point x="714.1" y="-43.8"/>
      <point x="786" y="-70.5"/>
    </contour>
    <contour>
      <point x="699.9" y="295.1" type="curve"/>
      <point x="665.9" y="347.1"/>
      <point x="648.6" y="403"/>
      <point x="648.6" y="486.9" type="curve" smooth="yes"/>
      <point x="648.6" y="550.3"/>
      <point x="660.3" y="627"/>
      <point x="701.5" y="627" type="curve" smooth="yes"/>
      <point x="741.1" y="627"/>
      <point x="750.3" y="563.6"/>
      <point x="750.3" y="487.3" type="curve" smooth="yes"/>
      <point x="750.3" y="400.2"/>
      <point x="732.3" y="341.4"/>
    </contour>
  </outline>
</glyph>
<glyph name="ustrait-cy" format="1">
  <advance width="911"/>
  <unicode hex="04AF"/>
  <note>
    uni04AF
  </note>
  <outline>
    <contour>
      <point x="323" y="-492" type="line"/>
      <point x="588.8" y="-492" type="line"/>
      <point x="588.8" y="-32.64" type="line"/>
      <point x="914.6" y="1114.4" type="line"/>
      <point x="638.7" y="1114.4" type="line"/>
      <point x="495" y="475.8" type="line" smooth="yes"/>
      <point x="479.8" y="408.3"/>
      <point x="461.8" y="263.3"/>
      <point x="458.8" y="218.6" type="curve"/>
      <point x="455" y="218.6" type="line"/>
      <point x="452.9" y="256.7"/>
      <point x="434" y="405.3"/>
      <point x="415.5" y="486.3" type="curve" smooth="yes"/>
      <point x="275.4" y="1114.4" type="line"/>
      <point x="-0.5" y="1114.4" type="line"/>
      <point x="323" y="-30.305" type="line"/>
    </contour>
  </outline>
</glyph>
<glyph name="hadescender-cy" format="1">
  <advance width="1030"/>
  <unicode hex="04B3"/>
  <note>
    uni04B3
  </note>
  <outline>
    <contour>
      <point x="740.8" y="-397.7" type="line"/>
      <point x="1006.3" y="-397.7" type="line"/>
      <point x="1006.3" y="209" type="line"/>
      <point x="765.9" y="209" type="line"/>
      <point x="582.3" y="569.2" type="line"/>
      <point x="862.1" y="1114.4" type="line"/>
      <point x="588.1" y="1114.4" type="line"/>
      <point x="451.3" y="774.5" type="line"/>
      <point x="302.9" y="1114.4" type="line"/>
      <point x="26.3" y="1114.4" type="line"/>
      <point x="304.9" y="569.3" type="line"/>
      <point x="14" y="0" type="line"/>
      <point x="290.5" y="0" type="line"/>
      <point x="438.1" y="356.3" type="line"/>
      <point x="596.3" y="0" type="line"/>
      <point x="740.8" y="0" type="line"/>
    </contour>
  </outline>
</glyph>
<glyph name="Cheverticalstroke-cy" format="1">
  <advance width="1155"/>
  <unicode hex="04B8"/>
  <note>
    uni04B8
  </note>
  <outline>
    <contour>
      <point x="754.2" y="0" type="line"/>
      <point x="1026.1" y="0" type="line"/>
      <point x="1026.1" y="1462" type="line"/>
      <point x="754.2" y="1462" type="line"/>
      <point x="754.2" y="796.3" type="line"/>
      <point x="723" y="775.6"/>
      <point x="687" y="757.7"/>
      <point x="644.8" y="741.5" type="curve"/>
      <point x="644.8" y="1052.9" type="line"/>
      <point x="511.9" y="1052.9" type="line"/>
      <point x="511.9" y="721.5" type="line"/>
      <point x="509.7" y="721.5" type="line"/>
      <point x="426.2" y="728.5"/>
      <point x="396.8" y="792"/>
      <point x="396.8" y="924.4" type="curve" smooth="yes"/>
      <point x="396.8" y="1462" type="line"/>
      <point x="124.5" y="1462" type="line"/>
      <point x="124.5" y="861.9" type="line" smooth="yes"/>
      <point x="124.5" y="621.8"/>
      <point x="250.6" y="480.9"/>
      <point x="475.8" y="480.9" type="curve" smooth="yes"/>
      <point x="489.8" y="480.9"/>
      <point x="503.5" y="481.6"/>
      <point x="511.9" y="482.3" type="curve"/>
      <point x="511.9" y="180.1" type="line"/>
      <point x="644.8" y="180.1" type="line"/>
      <point x="644.8" y="513.6" type="line"/>
      <point x="675.7" y="522.9"/>
      <point x="711.7" y="540.4"/>
      <point x="754.2" y="567.5" type="curve"/>
    </contour>
  </outline>
</glyph>
<glyph name="Chedescenderabkhasian-cy" format="1">
  <advance width="1503"/>
  <unicode hex="04BE"/>
  <note>
    uni04BE
  </note>
  <outline>
    <contour>
      <point x="768.6" y="-418.7" type="line"/>
      <point x="1043.9" y="-418.7" type="line"/>
      <point x="1043.9" y="4.3" type="line"/>
      <point x="768.6" y="14" type="line"/>
    </contour>
    <component base="Cheabkhasian-cy"/>
  </outline>
</glyph>
<glyph name="Entail-cy" format="1">
  <advance width="1270"/>
  <unicode hex="04C9"/>
  <note>
    uni04C9
  </note>
  <outline>
    <contour>
      <point x="748" y="-418.7" type="line"/>
      <point x="1066.8" y="-418.7" type="line"/>
      <point x="1239.1" y="245.9" type="line"/>
      <point x="1031.9" y="245.9" type="line"/>
      <point x="1031.9" y="1462" type="line"/>
      <point x="759.6" y="1462" type="line"/>
      <point x="759.6" y="880.9" type="line"/>
      <point x="400.8" y="880.9" type="line"/>
      <point x="400.8" y="1462" type="line"/>
      <point x="128.5" y="1462" type="line"/>
      <point x="128.5" y="0" type="line"/>
      <point x="400.8" y="0" type="line"/>
      <point x="400.8" y="641.3" type="line"/>
      <point x="759.6" y="641.3" type="line"/>
      <point x="759.6" y="0" type="line"/>
      <point x="931.9" y="0" type="line"/>
    </contour>
  </outline>
</glyph>
<glyph name="entail-cy" format="1">
  <advance width="1133"/>
  <unicode hex="04CA"/>
  <note>
    uni04CA
  </note>
  <outline>
    <contour>
      <point x="698" y="-397.7" type="line"/>
      <point x="967.1" y="-397.7" type="line"/>
      <point x="1107.9" y="208.8" type="line"/>
      <point x="948.4" y="208.8" type="line"/>
      <point x="948.4" y="1114.4" type="line"/>
      <point x="680.1" y="1114.4" type="line"/>
      <point x="680.1" y="680" type="line"/>
      <point x="379.3" y="680" type="line"/>
      <point x="379.3" y="1114.4" type="line"/>
      <point x="112.8" y="1114.4" type="line"/>
      <point x="112.8" y="0" type="line"/>
      <point x="379.3" y="0" type="line"/>
      <point x="379.3" y="467.3" type="line"/>
      <point x="680.1" y="467.3" type="line"/>
      <point x="680.1" y="0" type="line"/>
      <point x="831.5" y="0" type="line"/>
    </contour>
  </outline>
</glyph>
<glyph name="chekhakassian-cy" format="1">
  <advance width="1036"/>
  <unicode hex="04CC"/>
  <note>
    uni04CC
  </note>
  <outline>
    <contour>
      <point x="507.1" y="-397.7" type="line"/>
      <point x="771.9" y="-397.7" type="line"/>
      <point x="771.9" y="0" type="line"/>
      <point x="925.6" y="0" type="line"/>
      <point x="925.6" y="1114.4" type="line"/>
      <point x="657.3" y="1114.4" type="line"/>
      <point x="657.3" y="632.9" type="line"/>
      <point x="599.8" y="585.1"/>
      <point x="547.8" y="552.7"/>
      <point x="472.7" y="552.7" type="curve" smooth="yes"/>
      <point x="401.1" y="552.7"/>
      <point x="368.9" y="596.6"/>
      <point x="368.9" y="700" type="curve" smooth="yes"/>
      <point x="368.9" y="1114.4" type="line"/>
      <point x="102" y="1114.4" type="line"/>
      <point x="102" y="678.6" type="line" smooth="yes"/>
      <point x="102" y="456.8"/>
      <point x="198.4" y="343.6"/>
      <point x="381" y="343.6" type="curve" smooth="yes"/>
      <point x="473.6" y="343.6"/>
      <point x="565.5" y="380.5"/>
      <point x="657.3" y="451.1" type="curve"/>
      <point x="657.3" y="209" type="line"/>
      <point x="507.1" y="209" type="line"/>
    </contour>
  </outline>
</glyph>
<glyph name="Dzeabkhasian-cy" format="1">
  <advance width="907"/>
  <unicode hex="04E0"/>
  <note>
    uni04E0
  </note>
  <outline>
    <contour>
      <point x="383.3" y="-20" type="curve" smooth="yes"/>
      <point x="681.8" y="-20"/>
      <point x="855.5" y="143.9"/>
      <point x="855.5" y="424.4" type="curve" smooth="yes"/>
      <point x="855.5" y="671.1"/>
      <point x="711.4" y="829.1"/>
      <point x="473.2" y="850.2" type="curve"/>
      <point x="802.5" y="1280.3" type="line"/>
      <point x="802.5" y="1462" type="line"/>
      <point x="76.1" y="1462" type="line"/>
      <point x="76.1" y="1224.6" type="line"/>
      <point x="484.6" y="1224.6" type="line"/>
      <point x="214.9" y="848.5" type="line"/>
      <point x="214.9" y="649.1" type="line"/>
      <point x="321.7" y="649.1" type="line" smooth="yes"/>
      <point x="498.6" y="649.1"/>
      <point x="587.6" y="578.8"/>
      <point x="587.6" y="437.9" type="curve" smooth="yes"/>
      <point x="587.6" y="283.9"/>
      <point x="513.4" y="207"/>
      <point x="362.2" y="207" type="curve" smooth="yes"/>
      <point x="274.7" y="207"/>
      <point x="154.3" y="244.5"/>
      <point x="36.7" y="323.9" type="curve"/>
      <point x="36.7" y="65.8" type="line"/>
      <point x="134.6" y="8.3"/>
      <point x="249.8" y="-20"/>
    </contour>
  </outline>
</glyph>
<glyph name="obarred-cy" format="1">
  <advance width="1012"/>
  <unicode hex="04E9"/>
  <note>
    uni04E9
  </note>
  <outline>
    <component base="fita-cy"/>
    <contour>
      <point x="505.8" y="1114.4" type="move" name="top"/>
    </contour>
  </outline>
</glyph>
<glyph name="kominje-cy" format="1">
  <advance width="1485"/>
  <unicode hex="050B"/>
  <note>
    uni050B
  </note>
  <outline>
    <contour>
      <point x="1053.8" y="-20" type="curve" smooth="yes"/>
      <point x="1150.1" y="-20"/>
      <point x="1228.4" y="1.7"/>
      <point x="1287.3" y="44" type="curve" smooth="yes"/>
      <point x="1379" y="109"/>
      <point x="1425.4" y="222.4"/>
      <point x="1425.4" y="381.4" type="curve" smooth="yes"/>
      <point x="1425.4" y="700" type="line"/>
      <point x="1157.1" y="700" type="line"/>
      <point x="1157.1" y="437.9" type="line" smooth="yes"/>
      <point x="1157.1" y="349.8"/>
      <point x="1150.8" y="303"/>
      <point x="1133.7" y="269" type="curve" smooth="yes"/>
      <point x="1119.9" y="231.7"/>
      <point x="1091.4" y="214.4"/>
      <point x="1051" y="214.4" type="curve" smooth="yes"/>
      <point x="974.8" y="214.4"/>
      <point x="948.4" y="272.1"/>
      <point x="948.4" y="379.1" type="curve" smooth="yes"/>
      <point x="948.4" y="1114.4" type="line"/>
      <point x="680.1" y="1114.4" type="line"/>
      <point x="680.1" y="680" type="line"/>
      <point x="379.3" y="680" type="line"/>
      <point x="379.3" y="1114.4" type="line"/>
      <point x="112.8" y="1114.4" type="line"/>
      <point x="112.8" y="0" type="line"/>
      <point x="379.3" y="0" type="line"/>
      <point x="379.3" y="467.3" type="line"/>
      <point x="680.1" y="467.3" type="line"/>
      <point x="680.1" y="373.5" type="line" smooth="yes"/>
      <point x="680.1" y="221.7"/>
      <point x="726.4" y="111.8"/>
      <point x="813.6" y="47.5" type="curve" smooth="yes"/>
      <point x="874.2" y="3.1"/>
      <point x="954.3" y="-20"/>
    </contour>
  </outline>
</glyph>
<glyph name="Komitje-cy" format="1">
  <advance width="1124"/>
  <unicode hex="050E"/>
  <note>
    uni050E
  </note>
  <outline>
    <contour>
      <point x="681.7" y="-20" type="curve" smooth="yes"/>
      <point x="926.3" y="-20"/>
      <point x="1054.6" y="122.2"/>
      <point x="1054.6" y="381.9" type="curve" smooth="yes"/>
      <point x="1054.6" y="848" type="line"/>
      <point x="784.4" y="848" type="line"/>
      <point x="784.4" y="381.5" type="line" smooth="yes"/>
      <point x="784.4" y="271.7"/>
      <point x="750" y="216.8"/>
      <point x="681.7" y="216.8" type="curve" smooth="yes"/>
      <point x="606.4" y="216.8"/>
      <point x="578" y="267.5"/>
      <point x="578" y="382.9" type="curve" smooth="yes"/>
      <point x="578" y="1223.1" type="line"/>
      <point x="857.8" y="1223.1" type="line"/>
      <point x="857.8" y="1462" type="line"/>
      <point x="27.3" y="1462" type="line"/>
      <point x="27.3" y="1223.1" type="line"/>
      <point x="307.1" y="1223.1" type="line"/>
      <point x="307.1" y="368.6" type="line" smooth="yes"/>
      <point x="307.1" y="115.7"/>
      <point x="435.1" y="-20"/>
    </contour>
  </outline>
</glyph>
<glyph name="sheva-hb" format="1">
  <advance width="187"/>
  <unicode hex="05B0"/>
  <note>
    afii57799
  </note>
  <outline>
    <contour>
      <point x="94" y="-274" type="curve" smooth="yes"/>
      <point x="152" y="-274"/>
      <point x="188" y="-241"/>
      <point x="188" y="-188" type="curve" smooth="yes"/>
      <point x="188" y="-135"/>
      <point x="152" y="-101"/>
      <point x="94" y="-101" type="curve" smooth="yes"/>
      <point x="36" y="-101"/>
      <point x="0" y="-135"/>
      <point x="0" y="-188" type="curve" smooth="yes"/>
      <point x="0" y="-241"/>
      <point x="36" y="-274"/>
    </contour>
    <contour>
      <point x="94" y="-515" type="curve" smooth="yes"/>
      <point x="152" y="-515"/>
      <point x="188" y="-481"/>
      <point x="188" y="-428" type="curve" smooth="yes"/>
      <point x="188" y="-376"/>
      <point x="152" y="-342"/>
      <point x="94" y="-342" type="curve" smooth="yes"/>
      <point x="36" y="-342"/>
      <point x="0" y="-376"/>
      <point x="0" y="-429" type="curve" smooth="yes"/>
      <point x="0" y="-482"/>
      <point x="36" y="-515"/>
    </contour>
    <contour>
      <point x="92" y="-81" type="move" name="_bottom"/>
    </contour>
  </outline>
</glyph>
<glyph name="tsere-hb" format="1">
  <advance width="485"/>
  <unicode hex="05B5"/>
  <note>
    afii57794
  </note>
  <outline>
    <contour>
      <point x="390" y="-265" type="curve" smooth="yes"/>
      <point x="449" y="-265"/>
      <point x="486" y="-231"/>
      <point x="486" y="-179" type="curve" smooth="yes"/>
      <point x="486" y="-127"/>
      <point x="449" y="-92"/>
      <point x="390" y="-92" type="curve" smooth="yes"/>
      <point x="331" y="-92"/>
      <point x="295" y="-125"/>
      <point x="295" y="-179" type="curve" smooth="yes"/>
      <point x="295" y="-234"/>
      <point x="331" y="-265"/>
    </contour>
    <contour>
      <point x="93" y="-265" type="curve" smooth="yes"/>
      <point x="152" y="-265"/>
      <point x="187" y="-231"/>
      <point x="187" y="-178" type="curve" smooth="yes"/>
      <point x="187" y="-126"/>
      <point x="151" y="-92"/>
      <point x="93" y="-92" type="curve" smooth="yes"/>
      <point x="40" y="-92"/>
      <point x="0" y="-120"/>
      <point x="0" y="-178" type="curve" smooth="yes"/>
      <point x="0" y="-232"/>
      <point x="35" y="-265"/>
    </contour>
    <contour>
      <point x="244" y="-72" type="move" name="_bottom"/>
    </contour>
  </outline>
</glyph>
<glyph name="patah-hb" format="1">
  <advance width="0"/>
  <unicode hex="05B7"/>
  <note>
    afii57798
  </note>
  <outline>
    <contour>
      <point x="-196" y="-234" type="line"/>
      <point x="198" y="-234" type="line"/>
      <point x="198" y="-119" type="line"/>
      <point x="-196" y="-119" type="line"/>
    </contour>
    <contour>
      <point x="2" y="-99" type="move" name="_bottom"/>
    </contour>
  </outline>
</glyph>
<glyph name="holam-hb" format="1">
  <advance width="189"/>
  <unicode hex="05B9"/>
  <note>
    afii57806
  </note>
  <outline>
    <contour>
      <point x="94" y="1410" type="curve" smooth="yes"/>
      <point x="153" y="1410"/>
      <point x="190" y="1444"/>
      <point x="190" y="1496" type="curve" smooth="yes"/>
      <point x="190" y="1548"/>
      <point x="153" y="1583"/>
      <point x="95" y="1583" type="curve" smooth="yes"/>
      <point x="37" y="1583"/>
      <point x="0" y="1552"/>
      <point x="0" y="1496" type="curve" smooth="yes"/>
      <point x="0" y="1441"/>
      <point x="34" y="1410"/>
    </contour>
    <contour>
      <point x="93" y="1383" type="move" name="_top"/>
    </contour>
  </outline>
</glyph>
<glyph name="holamhaser-hb" format="1">
  <advance width="189"/>
  <unicode hex="05BA"/>
  <note>
    uni05BA
  </note>
  <outline>
    <contour>
      <point x="93" y="1410" type="curve" smooth="yes"/>
      <point x="152" y="1410"/>
      <point x="190" y="1444"/>
      <point x="190" y="1496" type="curve" smooth="yes"/>
      <point x="190" y="1548"/>
      <point x="152" y="1583"/>
      <point x="94" y="1583" type="curve" smooth="yes"/>
      <point x="36" y="1583"/>
      <point x="0" y="1552"/>
      <point x="0" y="1496" type="curve" smooth="yes"/>
      <point x="0" y="1441"/>
      <point x="34" y="1410"/>
    </contour>
    <contour>
      <point x="210" y="1390" type="move" name="_topleft"/>
    </contour>
  </outline>
</glyph>
<glyph name="qubuts-hb" format="1">
  <advance width="555"/>
  <unicode hex="05BB"/>
  <note>
    afii57796
  </note>
  <outline>
    <contour>
      <point x="93" y="-300" type="curve" smooth="yes"/>
      <point x="151" y="-300"/>
      <point x="185" y="-267"/>
      <point x="185" y="-214" type="curve" smooth="yes"/>
      <point x="185" y="-161"/>
      <point x="149" y="-127"/>
      <point x="93" y="-127" type="curve" smooth="yes"/>
      <point x="40" y="-127"/>
      <point x="0" y="-154"/>
      <point x="0" y="-213" type="curve" smooth="yes"/>
      <point x="0" y="-267"/>
      <point x="35" y="-300"/>
    </contour>
    <contour>
      <point x="275" y="-476" type="curve" smooth="yes"/>
      <point x="333" y="-476"/>
      <point x="368" y="-441"/>
      <point x="368" y="-389" type="curve" smooth="yes"/>
      <point x="368" y="-337"/>
      <point x="333" y="-303"/>
      <point x="275" y="-303" type="curve" smooth="yes"/>
      <point x="217" y="-303"/>
      <point x="181" y="-337"/>
      <point x="181" y="-390" type="curve" smooth="yes"/>
      <point x="181" y="-443"/>
      <point x="217" y="-476"/>
    </contour>
    <contour>
      <point x="459" y="-651" type="curve" smooth="yes"/>
      <point x="518" y="-651"/>
      <point x="555" y="-617"/>
      <point x="555" y="-565" type="curve" smooth="yes"/>
      <point x="555" y="-513"/>
      <point x="518" y="-478"/>
      <point x="459" y="-478" type="curve" smooth="yes"/>
      <point x="402" y="-478"/>
      <point x="365" y="-510"/>
      <point x="365" y="-565" type="curve" smooth="yes"/>
      <point x="365" y="-620"/>
      <point x="399" y="-651"/>
    </contour>
    <contour>
      <point x="278" y="-107" type="move" name="_bottom"/>
    </contour>
  </outline>
</glyph>
<glyph name="shindot-hb" format="1">
  <advance width="0"/>
  <unicode hex="05C1"/>
  <note>
    afii57804
  </note>
  <outline>
    <contour>
      <point x="-2" y="1410" type="curve" smooth="yes"/>
      <point x="57" y="1410"/>
      <point x="95" y="1444"/>
      <point x="95" y="1496" type="curve" smooth="yes"/>
      <point x="95" y="1548"/>
      <point x="57" y="1583"/>
      <point x="0" y="1583" type="curve" smooth="yes"/>
      <point x="-59" y="1583"/>
      <point x="-94" y="1552"/>
      <point x="-94" y="1496" type="curve" smooth="yes"/>
      <point x="-94" y="1441"/>
      <point x="-61" y="1410"/>
    </contour>
    <contour>
      <point x="1" y="1114" type="move" name="_topright"/>
    </contour>
  </outline>
</glyph>
<glyph name="sindot-hb" format="1">
  <advance width="189"/>
  <unicode hex="05C2"/>
  <note>
    afii57803
  </note>
  <outline>
    <contour>
      <point x="94" y="1410" type="curve" smooth="yes"/>
      <point x="153" y="1410"/>
      <point x="190" y="1444"/>
      <point x="190" y="1496" type="curve" smooth="yes"/>
      <point x="190" y="1548"/>
      <point x="153" y="1583"/>
      <point x="95" y="1583" type="curve" smooth="yes"/>
      <point x="36" y="1583"/>
      <point x="0" y="1552"/>
      <point x="0" y="1496" type="curve" smooth="yes"/>
      <point x="0" y="1441"/>
      <point x="34" y="1410"/>
    </contour>
    <contour>
      <point x="210" y="1390" type="move" name="_topleft"/>
    </contour>
  </outline>
</glyph>
<glyph name="het-hb" format="1">
  <advance width="1038"/>
  <unicode hex="05D7"/>
  <note>
    afii57671
  </note>
  <outline>
    <contour>
      <point x="113" y="0" type="line"/>
      <point x="380" y="0" type="line"/>
      <point x="380" y="1084" type="line"/>
      <point x="422" y="1090"/>
      <point x="454" y="1093"/>
      <point x="485" y="1093" type="curve" smooth="yes"/>
      <point x="555" y="1093"/>
      <point x="598" y="1079"/>
      <point x="627" y="1046" type="curve" smooth="yes"/>
      <point x="658" y="1011"/>
      <point x="669" y="950"/>
      <point x="669" y="862" type="curve" smooth="yes"/>
      <point x="669" y="0" type="line"/>
      <point x="936" y="0" type="line"/>
      <point x="936" y="861" type="line" smooth="yes"/>
      <point x="936" y="987"/>
      <point x="926" y="1084"/>
      <point x="886" y="1157" type="curve" smooth="yes"/>
      <point x="873" y="1182"/>
      <point x="856" y="1204"/>
      <point x="834" y="1224" type="curve" smooth="yes"/>
      <point x="768" y="1283"/>
      <point x="672" y="1310"/>
      <point x="510" y="1310" type="curve" smooth="yes"/>
      <point x="442" y="1310"/>
      <point x="362" y="1304"/>
      <point x="279" y="1294" type="curve" smooth="yes"/>
      <point x="225" y="1287"/>
      <point x="169" y="1279"/>
      <point x="113" y="1267" type="curve"/>
    </contour>
    <contour>
      <point x="520" y="0" type="move" name="bottom"/>
    </contour>
    <contour>
      <point x="20" y="0" type="move" name="bottomleft"/>
    </contour>
    <contour>
      <point x="520" y="557" type="move" name="center"/>
    </contour>
    <contour>
      <point x="520" y="1114" type="move" name="top"/>
    </contour>
    <contour>
      <point x="20" y="1114" type="move" name="topleft"/>
    </contour>
  </outline>
</glyph>
<glyph name="lamed-hb" format="1">
  <advance width="823"/>
  <unicode hex="05DC"/>
  <note>
    afii57676
  </note>
  <outline>
    <contour>
      <point x="251" y="0" type="line"/>
      <point x="509" y="0" type="line"/>
      <point x="611" y="496" type="line"/>
      <point x="779" y="1110" type="line"/>
      <point x="779" y="1290" type="line"/>
      <point x="309" y="1290" type="line"/>
      <point x="309" y="1556" type="line"/>
      <point x="43" y="1556" type="line"/>
      <point x="43" y="1075" type="line"/>
      <point x="512" y="1075" type="line"/>
      <point x="353" y="497" type="line"/>
    </contour>
    <contour>
      <point x="412" y="0" type="move" name="bottom"/>
    </contour>
    <contour>
      <point x="20" y="0" type="move" name="bottomleft"/>
    </contour>
    <contour>
      <point x="412" y="557" type="move" name="center"/>
    </contour>
    <contour>
      <point x="412" y="1114" type="move" name="top"/>
    </contour>
    <contour>
      <point x="20" y="1114" type="move" name="topleft"/>
    </contour>
  </outline>
</glyph>
<glyph name="finalmem-hb" format="1">
  <advance width="1038"/>
  <unicode hex="05DD"/>
  <note>
    afii57677
  </note>
  <outline>
    <contour>
      <point x="113" y="0" type="line"/>
      <point x="936" y="0" type="line"/>
      <point x="936" y="861" type="line" smooth="yes"/>
      <point x="936" y="957"/>
      <point x="929" y="1025"/>
      <point x="917" y="1078" type="curve" smooth="yes"/>
      <point x="897" y="1167"/>
      <point x="843" y="1236"/>
      <point x="759" y="1272" type="curve" smooth="yes"/>
      <point x="699" y="1298"/>
      <point x="620" y="1310"/>
      <point x="487" y="1310" type="curve" smooth="yes"/>
      <point x="405" y="1310"/>
      <point x="306" y="1304"/>
      <point x="222" y="1296" type="curve" smooth="yes"/>
      <point x="171" y="1292"/>
      <point x="131" y="1286"/>
      <point x="113" y="1282" type="curve"/>
    </contour>
    <contour>
      <point x="380" y="215" type="line"/>
      <point x="380" y="1089" type="line"/>
      <point x="413" y="1092"/>
      <point x="433" y="1093"/>
      <point x="481" y="1093" type="curve" smooth="yes"/>
      <point x="518" y="1093"/>
      <point x="549" y="1091"/>
      <point x="581" y="1078" type="curve" smooth="yes"/>
      <point x="613" y="1065"/>
      <point x="636" y="1044"/>
      <point x="650" y="1008" type="curve" smooth="yes"/>
      <point x="664" y="974"/>
      <point x="669" y="916"/>
      <point x="669" y="862" type="curve" smooth="yes"/>
      <point x="669" y="215" type="line"/>
    </contour>
    <contour>
      <point x="520" y="0" type="move" name="bottom"/>
    </contour>
    <contour>
      <point x="20" y="0" type="move" name="bottomleft"/>
    </contour>
    <contour>
      <point x="520" y="557" type="move" name="center"/>
    </contour>
    <contour>
      <point x="520" y="1114" type="move" name="top"/>
    </contour>
    <contour>
      <point x="20" y="1114" type="move" name="topleft"/>
    </contour>
  </outline>
</glyph>
<glyph name="ayin-hb" format="1">
  <advance width="972"/>
  <unicode hex="05E2"/>
  <note>
    afii57682
  </note>
  <outline>
    <contour>
      <point x="52" y="-60" type="line"/>
      <point x="147" y="-42"/>
      <point x="241" y="-23"/>
      <point x="336" y="-5" type="curve" smooth="yes"/>
      <point x="548" y="38"/>
      <point x="673" y="126"/>
      <point x="751" y="266" type="curve" smooth="yes"/>
      <point x="850" y="406"/>
      <point x="869" y="585"/>
      <point x="881" y="711" type="curve" smooth="yes"/>
      <point x="930" y="1289" type="line"/>
      <point x="664" y="1289" type="line"/>
      <point x="611" y="667" type="line" smooth="yes"/>
      <point x="598" y="538"/>
      <point x="564" y="402"/>
      <point x="471" y="311" type="curve"/>
      <point x="418" y="708" type="line"/>
      <point x="309" y="1290" type="line"/>
      <point x="43" y="1290" type="line"/>
      <point x="262" y="199" type="line"/>
      <point x="237" y="194"/>
      <point x="213" y="190"/>
      <point x="188" y="185" type="curve"/>
      <point x="52" y="158" type="line"/>
    </contour>
    <contour>
      <point x="486" y="0" type="move" name="bottom"/>
    </contour>
    <contour>
      <point x="20" y="0" type="move" name="bottomleft"/>
    </contour>
    <contour>
      <point x="486" y="557" type="move" name="center"/>
    </contour>
    <contour>
      <point x="486" y="1114" type="move" name="top"/>
    </contour>
    <contour>
      <point x="20" y="1114" type="move" name="topleft"/>
    </contour>
  </outline>
</glyph>
<glyph name="finaltsadi-hb" format="1">
  <advance width="949"/>
  <unicode hex="05E5"/>
  <note>
    afii57685
  </note>
  <outline>
    <contour>
      <point x="201" y="-492" type="line"/>
      <point x="467" y="-492" type="line"/>
      <point x="467" y="435" type="line"/>
      <point x="483" y="435" type="line" smooth="yes"/>
      <point x="688" y="443"/>
      <point x="787" y="504"/>
      <point x="837" y="613" type="curve" smooth="yes"/>
      <point x="864" y="672"/>
      <point x="875" y="733"/>
      <point x="875" y="810" type="curve" smooth="yes"/>
      <point x="875" y="1290" type="line"/>
      <point x="609" y="1290" type="line"/>
      <point x="609" y="807" type="line" smooth="yes"/>
      <point x="609" y="689"/>
      <point x="576" y="640"/>
      <point x="493" y="622" type="curve" smooth="yes"/>
      <point x="484" y="622"/>
      <point x="468" y="622"/>
      <point x="436" y="625" type="curve"/>
      <point x="306" y="1290" type="line"/>
      <point x="12" y="1290" type="line"/>
      <point x="201" y="577" type="line"/>
    </contour>
    <contour>
      <point x="475" y="0" type="move" name="bottom"/>
    </contour>
    <contour>
      <point x="20" y="0" type="move" name="bottomleft"/>
    </contour>
    <contour>
      <point x="475" y="557" type="move" name="center"/>
    </contour>
    <contour>
      <point x="475" y="1114" type="move" name="top"/>
    </contour>
    <contour>
      <point x="20" y="1114" type="move" name="topleft"/>
    </contour>
  </outline>
</glyph>
<glyph name="qof-hb" format="1">
  <advance width="1057"/>
  <unicode hex="05E7"/>
  <note>
    afii57687
  </note>
  <outline>
    <contour>
      <point x="500" y="0" type="curve"/>
      <point x="765" y="0" type="line"/>
      <point x="765" y="34" type="line" smooth="yes"/>
      <point x="765" y="106"/>
      <point x="775" y="179"/>
      <point x="797" y="276" type="curve" smooth="yes"/>
      <point x="812" y="342"/>
      <point x="831" y="418"/>
      <point x="856" y="515" type="curve" smooth="yes"/>
      <point x="1014" y="1124" type="line"/>
      <point x="1014" y="1290" type="line"/>
      <point x="134" y="1290" type="line"/>
      <point x="134" y="1075" type="line"/>
      <point x="727" y="1075" type="line"/>
      <point x="577" y="505" type="line" smooth="yes"/>
      <point x="549" y="398"/>
      <point x="526" y="318"/>
      <point x="505" y="209" type="curve" smooth="yes"/>
      <point x="494" y="149"/>
      <point x="490" y="104"/>
      <point x="490" y="64" type="curve" smooth="yes"/>
      <point x="490" y="23"/>
      <point x="497" y="7"/>
    </contour>
    <contour>
      <point x="135" y="-493" type="line"/>
      <point x="400" y="-493" type="line"/>
      <point x="400" y="772" type="line"/>
      <point x="135" y="772" type="line"/>
    </contour>
    <contour>
      <point x="529" y="0" type="move" name="bottom"/>
    </contour>
    <contour>
      <point x="20" y="0" type="move" name="bottomleft"/>
    </contour>
    <contour>
      <point x="529" y="697" type="move" name="center"/>
    </contour>
    <contour>
      <point x="529" y="1114" type="move" name="top"/>
    </contour>
    <contour>
      <point x="20" y="1114" type="move" name="topleft"/>
    </contour>
  </outline>
</glyph>
<glyph name="resh-hb" format="1">
  <advance width="822"/>
  <unicode hex="05E8"/>
  <note>
    afii57688
  </note>
  <outline>
    <contour>
      <point x="453" y="0" type="line"/>
      <point x="720" y="0" type="line"/>
      <point x="720" y="861" type="line" smooth="yes"/>
      <point x="720" y="982"/>
      <point x="717" y="1082"/>
      <point x="675" y="1157" type="curve" smooth="yes"/>
      <point x="646" y="1210"/>
      <point x="608" y="1245"/>
      <point x="553" y="1269" type="curve" smooth="yes"/>
      <point x="490" y="1296"/>
      <point x="409" y="1310"/>
      <point x="294" y="1310" type="curve" smooth="yes"/>
      <point x="229" y="1310"/>
      <point x="142" y="1305"/>
      <point x="43" y="1294" type="curve"/>
      <point x="43" y="1078" type="line"/>
      <point x="103" y="1084"/>
      <point x="221" y="1093"/>
      <point x="272" y="1093" type="curve" smooth="yes"/>
      <point x="323" y="1093"/>
      <point x="370" y="1082"/>
      <point x="399" y="1058" type="curve" smooth="yes"/>
      <point x="441" y="1024"/>
      <point x="453" y="958"/>
      <point x="453" y="862" type="curve" smooth="yes"/>
    </contour>
    <contour>
      <point x="411" y="0" type="move" name="bottom"/>
    </contour>
    <contour>
      <point x="20" y="0" type="move" name="bottomleft"/>
    </contour>
    <contour>
      <point x="411" y="557" type="move" name="center"/>
    </contour>
    <contour>
      <point x="411" y="1114" type="move" name="top"/>
    </contour>
    <contour>
      <point x="20" y="1114" type="move" name="topleft"/>
    </contour>
  </outline>
</glyph>
<glyph name="Germandbls" format="1">
  <advance width="1242"/>
  <unicode hex="1E9E"/>
  <outline>
    <contour>
      <point x="785.1" y="-20" type="curve" smooth="yes"/>
      <point x="1058.5" y="-20"/>
      <point x="1180.8" y="127.2"/>
      <point x="1180.8" y="376.6" type="curve" smooth="yes"/>
      <point x="1180.8" y="511.2"/>
      <point x="1141.4" y="589"/>
      <point x="1066.2" y="655.7" type="curve" smooth="yes"/>
      <point x="1007" y="712.9"/>
      <point x="940.2" y="764.2"/>
      <point x="877.4" y="819.2" type="curve" smooth="yes"/>
      <point x="798" y="879.9"/>
      <point x="748.9" y="925.1"/>
      <point x="748.9" y="1007.6" type="curve" smooth="yes"/>
      <point x="748.9" y="1084.9"/>
      <point x="779.5" y="1136.7"/>
      <point x="839.9" y="1155.6" type="curve"/>
      <point x="923.7" y="1346.2" type="line"/>
      <point x="856.2" y="1436.6"/>
      <point x="729.8" y="1487"/>
      <point x="557" y="1487" type="curve" smooth="yes"/>
      <point x="224.5" y="1487"/>
      <point x="128.5" y="1413.7"/>
      <point x="128.5" y="1096.8" type="curve" smooth="yes"/>
      <point x="128.5" y="0" type="line"/>
      <point x="395" y="0" type="line"/>
      <point x="395" y="1089.3" type="line" smooth="yes"/>
      <point x="395" y="1234.1"/>
      <point x="443.8" y="1266.8"/>
      <point x="569.5" y="1266.8" type="curve"/>
      <point x="585.4" y="1276.6"/>
      <point x="599.9" y="1282.7"/>
      <point x="611.3" y="1286.2" type="curve"/>
      <point x="530.9" y="1219.5"/>
      <point x="480.4" y="1132.7"/>
      <point x="480.4" y="994.3" type="curve" smooth="yes"/>
      <point x="480.4" y="847.1"/>
      <point x="532.1" y="743.1"/>
      <point x="648.8" y="666.8" type="curve" smooth="yes"/>
      <point x="710.6" y="603.9"/>
      <point x="777" y="561.6"/>
      <point x="834.3" y="507.7" type="curve" smooth="yes"/>
      <point x="883.8" y="466.1"/>
      <point x="911.3" y="423.6"/>
      <point x="911.3" y="354.8" type="curve" smooth="yes"/>
      <point x="911.3" y="269.3"/>
      <point x="861.1" y="216.8"/>
      <point x="766.2" y="216.8" type="curve" smooth="yes"/>
      <point x="678.2" y="216.8"/>
      <point x="573.8" y="255.2"/>
      <point x="468.4" y="323.9" type="curve"/>
      <point x="468.4" y="54.8" type="line"/>
      <point x="555" y="4.5"/>
      <point x="675.2" y="-20"/>
    </contour>
  </outline>
</glyph>
<glyph name="dasiaoxia" format="1">
  <advance width="803"/>
  <unicode hex="1FDE"/>
  <outline>
    <contour>
      <point x="450" y="1137" type="line"/>
      <point x="574" y="1137" type="line"/>
      <point x="685" y="1271"/>
      <point x="751" y="1374"/>
      <point x="783" y="1444" type="curve"/>
      <point x="783" y="1464" type="line"/>
      <point x="533" y="1464" type="line"/>
      <point x="520" y="1404"/>
      <point x="474" y="1238"/>
      <point x="450" y="1163" type="curve"/>
    </contour>
    <contour>
      <point x="262" y="1128" type="curve" smooth="yes"/>
      <point x="329" y="1128"/>
      <point x="375" y="1154"/>
      <point x="375" y="1208" type="curve" smooth="yes"/>
      <point x="375" y="1242"/>
      <point x="355" y="1259"/>
      <point x="319" y="1271" type="curve" smooth="yes"/>
      <point x="281" y="1284"/>
      <point x="261" y="1291"/>
      <point x="261" y="1315" type="curve" smooth="yes"/>
      <point x="261" y="1333"/>
      <point x="270" y="1349"/>
      <point x="294" y="1364" type="curve" smooth="yes"/>
      <point x="323" y="1381"/>
      <point x="355" y="1391"/>
      <point x="399" y="1404" type="curve"/>
      <point x="399" y="1479" type="line"/>
      <point x="217" y="1450"/>
      <point x="115" y="1377"/>
      <point x="115" y="1260" type="curve" smooth="yes"/>
      <point x="115" y="1173"/>
      <point x="174" y="1128"/>
    </contour>
    <contour>
      <point x="449" y="1114" type="move" name="_top"/>
    </contour>
    <contour>
      <point x="751" y="1462" type="move" name="_topleft"/>
    </contour>
    <contour>
      <point x="449" y="1479" type="move" name="top"/>
    </contour>
  </outline>
</glyph>
<glyph name="horizontalbar" format="1">
  <advance width="1579"/>
  <unicode hex="2015"/>
  <note>
    afii00208
  </note>
  <outline>
    <contour>
      <point x="70.1" y="442" type="line"/>
      <point x="1507.5" y="442" type="line"/>
      <point x="1507.5" y="659.1" type="line"/>
      <point x="70.1" y="659.1" type="line"/>
    </contour>
  </outline>
</glyph>
<glyph name="dagger" format="1">
  <advance width="1024"/>
  <unicode hex="2020"/>
  <note>
    dagger
  </note>
  <outline>
    <contour>
      <point x="369" y="0" type="line"/>
      <point x="636" y="0" type="line"/>
      <point x="581" y="971" type="line"/>
      <point x="912" y="940" type="line"/>
      <point x="912" y="1169" type="line"/>
      <point x="581" y="1139" type="line"/>
      <point x="636" y="1556" type="line"/>
      <point x="369" y="1556" type="line"/>
      <point x="425" y="1139" type="line"/>
      <point x="113" y="1169" type="line"/>
      <point x="113" y="940" type="line"/>
      <point x="425" y="971" type="line"/>
    </contour>
  </outline>
</glyph>
<glyph name="perthousand" format="1">
  <advance width="2206"/>
  <unicode hex="2030"/>
  <note>
    perthousand
  </note>
  <outline>
    <contour>
      <point x="373" y="0" type="line"/>
      <point x="579" y="0" type="line"/>
      <point x="1183" y="1462" type="line"/>
      <point x="976" y="1462" type="line"/>
    </contour>
    <contour>
      <point x="359" y="565" type="curve" smooth="yes"/>
      <point x="585" y="565"/>
      <point x="648" y="760"/>
      <point x="648" y="1025" type="curve" smooth="yes"/>
      <point x="648" y="1295"/>
      <point x="594" y="1483"/>
      <point x="355" y="1483" type="curve" smooth="yes"/>
      <point x="124" y="1483"/>
      <point x="63" y="1296"/>
      <point x="63" y="1023" type="curve" smooth="yes"/>
      <point x="63" y="750"/>
      <point x="125" y="565"/>
    </contour>
    <contour>
      <point x="354" y="758" type="curve" smooth="yes"/>
      <point x="332" y="758"/>
      <point x="308" y="773"/>
      <point x="294" y="822" type="curve" smooth="yes"/>
      <point x="283" y="864"/>
      <point x="277" y="930"/>
      <point x="277" y="1023" type="curve" smooth="yes"/>
      <point x="277" y="1110"/>
      <point x="282" y="1180"/>
      <point x="295" y="1227" type="curve" smooth="yes"/>
      <point x="306" y="1264"/>
      <point x="324" y="1290"/>
      <point x="355" y="1290" type="curve" smooth="yes"/>
      <point x="385" y="1290"/>
      <point x="404" y="1266"/>
      <point x="416" y="1227" type="curve" smooth="yes"/>
      <point x="429" y="1184"/>
      <point x="435" y="1122"/>
      <point x="435" y="1028" type="curve" smooth="yes"/>
      <point x="435" y="928"/>
      <point x="429" y="864"/>
      <point x="417" y="822" type="curve" smooth="yes"/>
      <point x="403" y="779"/>
      <point x="381" y="758"/>
    </contour>
    <contour>
      <point x="1203" y="-18" type="curve" smooth="yes"/>
      <point x="1423" y="-18"/>
      <point x="1494" y="179"/>
      <point x="1494" y="442" type="curve" smooth="yes"/>
      <point x="1494" y="708"/>
      <point x="1433" y="899"/>
      <point x="1198" y="899" type="curve" smooth="yes"/>
      <point x="969" y="899"/>
      <point x="908" y="711"/>
      <point x="908" y="437" type="curve" smooth="yes"/>
      <point x="908" y="167"/>
      <point x="974" y="-18"/>
    </contour>
    <contour>
      <point x="1201" y="174" type="curve" smooth="yes"/>
      <point x="1175" y="174"/>
      <point x="1152" y="195"/>
      <point x="1139" y="238" type="curve" smooth="yes"/>
      <point x="1126" y="280"/>
      <point x="1121" y="346"/>
      <point x="1121" y="438" type="curve" smooth="yes"/>
      <point x="1121" y="524"/>
      <point x="1126" y="599"/>
      <point x="1139" y="643" type="curve" smooth="yes"/>
      <point x="1151" y="684"/>
      <point x="1172" y="705"/>
      <point x="1201" y="705" type="curve" smooth="yes"/>
      <point x="1222" y="705"/>
      <point x="1238" y="692"/>
      <point x="1248" y="668" type="curve" smooth="yes"/>
      <point x="1271" y="629"/>
      <point x="1281" y="546"/>
      <point x="1281" y="438" type="curve" smooth="yes"/>
      <point x="1281" y="355"/>
      <point x="1276" y="292"/>
      <point x="1263" y="247" type="curve" smooth="yes"/>
      <point x="1250" y="200"/>
      <point x="1231" y="174"/>
    </contour>
    <contour>
      <point x="1855" y="-18" type="curve" smooth="yes"/>
      <point x="2086" y="-18"/>
      <point x="2143" y="176"/>
      <point x="2143" y="445" type="curve" smooth="yes"/>
      <point x="2143" y="713"/>
      <point x="2075" y="899"/>
      <point x="1842" y="899" type="curve" smooth="yes"/>
      <point x="1614" y="899"/>
      <point x="1560" y="707"/>
      <point x="1560" y="437" type="curve" smooth="yes"/>
      <point x="1560" y="167"/>
      <point x="1624" y="-18"/>
    </contour>
    <contour>
      <point x="1849" y="174" type="curve" smooth="yes"/>
      <point x="1825" y="174"/>
      <point x="1803" y="190"/>
      <point x="1790" y="238" type="curve" smooth="yes"/>
      <point x="1779" y="280"/>
      <point x="1773" y="346"/>
      <point x="1773" y="441" type="curve" smooth="yes"/>
      <point x="1773" y="528"/>
      <point x="1778" y="595"/>
      <point x="1792" y="643" type="curve" smooth="yes"/>
      <point x="1803" y="682"/>
      <point x="1820" y="705"/>
      <point x="1850" y="705" type="curve" smooth="yes"/>
      <point x="1870" y="705"/>
      <point x="1887" y="693"/>
      <point x="1900" y="665" type="curve" smooth="yes"/>
      <point x="1920" y="624"/>
      <point x="1930" y="549"/>
      <point x="1930" y="438" type="curve" smooth="yes"/>
      <point x="1930" y="349"/>
      <point x="1924" y="279"/>
      <point x="1912" y="237" type="curve" smooth="yes"/>
      <point x="1898" y="191"/>
      <point x="1875" y="174"/>
    </contour>
  </outline>
</glyph>
<glyph name="servicemark" format="1">
  <advance width="1360"/>
  <unicode hex="2120"/>
  <note>
    uni2120
  </note>
  <outline>
    <contour>
      <point x="549" y="741" type="line"/>
      <point x="698.2" y="741" type="line"/>
      <point x="698.2" y="1084.6" type="line" smooth="yes"/>
      <point x="697.6" y="1171.2"/>
      <point x="697" y="1197.6"/>
      <point x="692.2" y="1273.7" type="curve"/>
      <point x="700.2" y="1273.7" type="line"/>
      <point x="821.1" y="741" type="line"/>
      <point x="970.7" y="741" type="line"/>
      <point x="1093.7" y="1272.5" type="line"/>
      <point x="1101.7" y="1272.5" type="line"/>
      <point x="1096.9" y="1195.8"/>
      <point x="1096.3" y="1168.8"/>
      <point x="1095.7" y="1081.6" type="curve" smooth="yes"/>
      <point x="1095.7" y="741" type="line"/>
      <point x="1246.1" y="741" type="line"/>
      <point x="1246.1" y="1462" type="line"/>
      <point x="1007" y="1462" type="line"/>
      <point x="897.1" y="973.6" type="line"/>
      <point x="788.1" y="1462" type="line"/>
      <point x="549" y="1462" type="line"/>
    </contour>
    <contour>
      <point x="243.3" y="733.1" type="curve" smooth="yes"/>
      <point x="384.5" y="733.1"/>
      <point x="475" y="813.6"/>
      <point x="475" y="950.6" type="curve" smooth="yes"/>
      <point x="475" y="1046.4"/>
      <point x="430.1" y="1094.3"/>
      <point x="330.8" y="1151.1" type="curve" smooth="yes"/>
      <point x="252.4" y="1193.5"/>
      <point x="213.3" y="1216.5"/>
      <point x="213.3" y="1276.4" type="curve" smooth="yes"/>
      <point x="213.3" y="1321.2"/>
      <point x="243" y="1345.9"/>
      <point x="290.9" y="1345.9" type="curve" smooth="yes"/>
      <point x="336.4" y="1345.9"/>
      <point x="385.3" y="1322.3"/>
      <point x="425.7" y="1299.6" type="curve"/>
      <point x="470.4" y="1420.4" type="line"/>
      <point x="401.9" y="1458.5"/>
      <point x="344.1" y="1473"/>
      <point x="281.3" y="1473" type="curve" smooth="yes"/>
      <point x="152.1" y="1473"/>
      <point x="67.8" y="1392.4"/>
      <point x="67.8" y="1263.2" type="curve" smooth="yes"/>
      <point x="67.8" y="1218.7"/>
      <point x="75.7" y="1184.1"/>
      <point x="94.1" y="1154.1" type="curve" smooth="yes"/>
      <point x="116.8" y="1117.1"/>
      <point x="154.8" y="1087"/>
      <point x="212.3" y="1055.5" type="curve" smooth="yes"/>
      <point x="271.2" y="1027"/>
      <point x="325.5" y="984.6"/>
      <point x="325.5" y="938.4" type="curve" smooth="yes"/>
      <point x="325.5" y="889.3"/>
      <point x="299.6" y="860.2"/>
      <point x="239.7" y="860.2" type="curve" smooth="yes"/>
      <point x="198" y="860.2"/>
      <point x="135.9" y="876.8"/>
      <point x="62.9" y="914.9" type="curve"/>
      <point x="62.9" y="776" type="line"/>
      <point x="114.4" y="747.3"/>
      <point x="174.4" y="733.1"/>
    </contour>
  </outline>
</glyph>
<glyph name="increment" format="1">
  <advance width="1085"/>
  <unicode hex="2206"/>
  <note>
    Delta
  </note>
  <outline>
    <contour>
      <point x="34.9" y="0" type="line"/>
      <point x="1050.8" y="0" type="line"/>
      <point x="1050.8" y="160.3" type="line"/>
      <point x="726.8" y="1468.3" type="line"/>
      <point x="356.4" y="1468.3" type="line"/>
      <point x="34.9" y="160.4" type="line"/>
    </contour>
    <contour>
      <point x="318.6" y="239.6" type="line"/>
      <point x="399.5" y="588.7"/>
      <point x="456.7" y="840.3"/>
      <point x="486.4" y="980.8" type="curve" smooth="yes"/>
      <point x="508" y="1084.8"/>
      <point x="527.1" y="1184.7"/>
      <point x="543.3" y="1275.2" type="curve"/>
      <point x="535.4" y="1270.1" type="line"/>
      <point x="544.2" y="1226.2"/>
      <point x="565.9" y="1122.2"/>
      <point x="612.7" y="909.4" type="curve" smooth="yes"/>
      <point x="653.9" y="726.4"/>
      <point x="702.8" y="508"/>
      <point x="762.2" y="239.6" type="curve"/>
    </contour>
  </outline>
</glyph>
<glyph name="squareimageof" format="1">
  <advance width="1171"/>
  <unicode hex="228F"/>
  <note>
    squareimageof
  </note>
  <outline>
    <contour>
      <point x="104" y="168" type="line"/>
      <point x="1067" y="168" type="line"/>
      <point x="1067" y="313" type="line"/>
      <point x="250" y="313" type="line"/>
      <point x="250" y="1133" type="line"/>
      <point x="1067" y="1133" type="line"/>
      <point x="1067" y="1278" type="line"/>
      <point x="104" y="1278" type="line"/>
    </contour>
  </outline>
</glyph>
<glyph name="righthandInteriorProduct" format="1">
  <advance width="1171"/>
  <unicode hex="2A3D"/>
  <note>
    righthandInteriorProduct
  </note>
  <outline>
    <contour>
      <point x="104" y="262" type="line"/>
      <point x="1067" y="262" type="line"/>
      <point x="1067" y="408" type="line"/>
      <point x="250" y="408" type="line"/>
      <point x="250" y="795" type="line"/>
      <point x="104" y="795" type="line"/>
    </contour>
  </outline>
</glyph>
<glyph name="brevecomb-cy" format="1">
  <advance width="929"/>
  <note>
    g566
  </note>
  <outline>
    <contour>
      <point x="449" y="1242" type="curve" smooth="yes"/>
      <point x="678" y="1242"/>
      <point x="787" y="1341"/>
      <point x="816" y="1562" type="curve"/>
      <point x="593" y="1562" type="line"/>
      <point x="577" y="1444"/>
      <point x="541" y="1393"/>
      <point x="456" y="1393" type="curve" smooth="yes"/>
      <point x="372" y="1393"/>
      <point x="336" y="1427"/>
      <point x="319" y="1562" type="curve"/>
      <point x="100" y="1562" type="line"/>
      <point x="121" y="1338"/>
      <point x="228" y="1242"/>
    </contour>
    <contour>
      <point x="458" y="1114" type="move" name="_top"/>
    </contour>
  </outline>
</glyph>
<glyph name="caron.alt" format="1">
  <advance width="323"/>
  <outline>
    <contour>
      <point x="0" y="1229" type="line"/>
      <point x="160.9" y="1229" type="line"/>
      <point x="220.8" y="1321.6"/>
      <point x="274.3" y="1423.9"/>
      <point x="322.3" y="1536" type="curve"/>
      <point x="322.3" y="1556" type="line"/>
      <point x="60.9" y="1556" type="line"/>
      <point x="49.8" y="1467.7"/>
      <point x="30.2" y="1366.5"/>
      <point x="0" y="1255.3" type="curve"/>
    </contour>
    <contour>
      <point x="322.3" y="1556" type="move" name="_topright"/>
    </contour>
  </outline>
</glyph>
<glyph name="cyrillicbighookLC" format="1">
  <advance width="559"/>
  <outline>
    <contour>
      <point x="185" y="-477" type="curve" smooth="yes"/>
      <point x="402" y="-477"/>
      <point x="528" y="-355"/>
      <point x="528" y="-104" type="curve" smooth="yes"/>
      <point x="528" y="239" type="line"/>
      <point x="195" y="239" type="line"/>
      <point x="195" y="0" type="line"/>
      <point x="255" y="0" type="line"/>
      <point x="255" y="-87" type="line" smooth="yes"/>
      <point x="255" y="-212"/>
      <point x="201" y="-250"/>
      <point x="122" y="-250" type="curve" smooth="yes"/>
      <point x="98" y="-250"/>
      <point x="55" y="-245"/>
      <point x="16" y="-235" type="curve"/>
      <point x="16" y="-458" type="line"/>
      <point x="55" y="-471"/>
      <point x="116" y="-477"/>
    </contour>
  </outline>
</glyph>
<glyph name="dagesh-hb.small" format="1">
  <advance width="600"/>
  <outline>
    <contour>
      <point x="64" y="351" type="curve" smooth="yes"/>
      <point x="104" y="351"/>
      <point x="130" y="374"/>
      <point x="130" y="410" type="curve" smooth="yes"/>
      <point x="130" y="445"/>
      <point x="104" y="469"/>
      <point x="64" y="469" type="curve" smooth="yes"/>
      <point x="44" y="469"/>
      <point x="28" y="464"/>
      <point x="17" y="453" type="curve" smooth="yes"/>
      <point x="6" y="442"/>
      <point x="0" y="428"/>
      <point x="0" y="410" type="curve" smooth="yes"/>
      <point x="0" y="373"/>
      <point x="23" y="351"/>
    </contour>
    <contour>
      <point x="64" y="410" type="move" name="_center"/>
    </contour>
  </outline>
</glyph>
<glyph name="eight.osf" format="1">
  <advance width="906"/>
  <note>
    g907
  </note>
  <outline>
    <contour>
      <point x="452.6" y="-20" type="curve" smooth="yes"/>
      <point x="689" y="-20"/>
      <point x="846.1" y="136.8"/>
      <point x="846.1" y="379.1" type="curve" smooth="yes"/>
      <point x="846.1" y="535.8"/>
      <point x="783.6" y="641.6"/>
      <point x="621.8" y="771.7" type="curve"/>
      <point x="763.3" y="878"/>
      <point x="815.9" y="972.5"/>
      <point x="815.9" y="1127.3" type="curve" smooth="yes"/>
      <point x="815.9" y="1343.7"/>
      <point x="674.2" y="1480.7"/>
      <point x="454.2" y="1480.7" type="curve" smooth="yes"/>
      <point x="237.5" y="1480.7"/>
      <point x="89.4" y="1340.8"/>
      <point x="89.4" y="1129.3" type="curve" smooth="yes"/>
      <point x="89.4" y="978.8"/>
      <point x="135.3" y="883.6"/>
      <point x="263.4" y="763.5" type="curve"/>
      <point x="114.9" y="647.6"/>
      <point x="59.8" y="538"/>
      <point x="59.8" y="370.1" type="curve" smooth="yes"/>
      <point x="59.8" y="123.6"/>
      <point x="203.3" y="-20"/>
    </contour>
    <contour>
      <point x="452.6" y="206.5" type="curve" smooth="yes"/>
      <point x="388.5" y="206.5"/>
      <point x="346" y="277.8"/>
      <point x="346" y="389.4" type="curve" smooth="yes"/>
      <point x="346" y="493"/>
      <point x="411.8" y="594"/>
      <point x="479.7" y="646.9" type="curve"/>
      <point x="412.8" y="646.9" type="line"/>
      <point x="492.3" y="588.9"/>
      <point x="553.6" y="493.8"/>
      <point x="553.6" y="392.1" type="curve" smooth="yes"/>
      <point x="553.6" y="279.7"/>
      <point x="516.1" y="206.5"/>
    </contour>
    <contour>
      <point x="357.8" y="1105.5" type="curve" smooth="yes"/>
      <point x="357.8" y="1189.6"/>
      <point x="409.3" y="1254.9"/>
      <point x="452.5" y="1254.9" type="curve" smooth="yes"/>
      <point x="496.6" y="1254.9"/>
      <point x="547.8" y="1189.6"/>
      <point x="547.8" y="1105.5" type="curve" smooth="yes"/>
      <point x="547.8" y="1011.6"/>
      <point x="483.9" y="927.6"/>
      <point x="421.8" y="884.3" type="curve"/>
      <point x="486.8" y="884.3" type="line"/>
      <point x="420.1" y="933.7"/>
      <point x="357.8" y="1006.2"/>
    </contour>
  </outline>
</glyph>
<glyph name="four.osf" format="1">
  <advance width="940"/>
  <note>
    g903
  </note>
  <outline>
    <contour>
      <point x="489.5" y="-344" type="line"/>
      <point x="802.9" y="-344" type="line"/>
      <point x="802.9" y="26.5" type="line"/>
      <point x="919.8" y="26.5" type="line"/>
      <point x="919.8" y="265.8" type="line"/>
      <point x="802.9" y="265.8" type="line"/>
      <point x="802.9" y="1139" type="line"/>
      <point x="465.4" y="1139" type="line"/>
      <point x="20" y="231.4" type="line"/>
      <point x="20" y="26.5" type="line"/>
      <point x="489.5" y="26.5" type="line"/>
    </contour>
    <contour>
      <point x="300.5" y="265.8" type="line"/>
      <point x="436.6" y="568.9" type="line" smooth="yes"/>
      <point x="461.8" y="627.8"/>
      <point x="507.8" y="742.5"/>
      <point x="521.7" y="787.7" type="curve"/>
      <point x="507.6" y="787.7" type="line"/>
      <point x="504.4" y="740.5"/>
      <point x="500" y="550.5"/>
      <point x="500" y="485.5" type="curve" smooth="yes"/>
      <point x="500" y="265.8" type="line"/>
    </contour>
  </outline>
</glyph>
<glyph name="g568" format="1">
  <advance width="956"/>
  <note>
    g568
  </note>
  <outline>
    <contour>
      <point x="324" y="1229" type="line"/>
      <point x="484.9" y="1229" type="line"/>
      <point x="543.4" y="1320.2"/>
      <point x="596.9" y="1422.5"/>
      <point x="647" y="1536" type="curve"/>
      <point x="647" y="1556" type="line"/>
      <point x="384.9" y="1556" type="line"/>
      <point x="373.8" y="1468.4"/>
      <point x="354.2" y="1367.9"/>
      <point x="324" y="1255.3" type="curve"/>
    </contour>
  </outline>
</glyph>
<glyph name="nine.osf" format="1">
  <advance width="927"/>
  <note>
    g908
  </note>
  <outline>
    <contour>
      <point x="319.7" y="-341.8" type="curve" smooth="yes"/>
      <point x="416.4" y="-341.8"/>
      <point x="510.9" y="-320.6"/>
      <point x="585.6" y="-275.1" type="curve" smooth="yes"/>
      <point x="769.7" y="-163.7"/>
      <point x="856.1" y="108.1"/>
      <point x="856.1" y="498.5" type="curve" smooth="yes"/>
      <point x="856.1" y="659"/>
      <point x="839.5" y="791.2"/>
      <point x="797.5" y="896.3" type="curve" smooth="yes"/>
      <point x="740.1" y="1052.8"/>
      <point x="628.8" y="1156.9"/>
      <point x="448.7" y="1156.9" type="curve" smooth="yes"/>
      <point x="206.2" y="1156.9"/>
      <point x="65.8" y="974.6"/>
      <point x="65.8" y="642.4" type="curve" smooth="yes"/>
      <point x="65.8" y="349.3"/>
      <point x="178.8" y="186.3"/>
      <point x="395.2" y="186.3" type="curve" smooth="yes"/>
      <point x="525.4" y="186.3"/>
      <point x="610.9" y="246.1"/>
      <point x="654.1" y="355.6" type="curve"/>
      <point x="583.8" y="355.6" type="line"/>
      <point x="580.6" y="244.5"/>
      <point x="564.4" y="137.3"/>
      <point x="546.5" y="88.1" type="curve" smooth="yes"/>
      <point x="492.4" y="-46.8"/>
      <point x="427.5" y="-101"/>
      <point x="305.9" y="-101" type="curve" smooth="yes"/>
      <point x="235.8" y="-101"/>
      <point x="156.8" y="-86.6"/>
      <point x="133.7" y="-80.3" type="curve"/>
      <point x="133.7" y="-327.9" type="line"/>
      <point x="163.1" y="-333.6"/>
      <point x="249.2" y="-341.8"/>
    </contour>
    <contour>
      <point x="448.7" y="423" type="curve" smooth="yes"/>
      <point x="405.7" y="423"/>
      <point x="367" y="520.1"/>
      <point x="367" y="655.8" type="curve" smooth="yes"/>
      <point x="367" y="821.8"/>
      <point x="410.6" y="909.3"/>
      <point x="453.6" y="909.3" type="curve" smooth="yes"/>
      <point x="478.1" y="909.3"/>
      <point x="505.8" y="861.7"/>
      <point x="524.8" y="797.7" type="curve" smooth="yes"/>
      <point x="539.2" y="748.6"/>
      <point x="548.8" y="689.8"/>
      <point x="548.8" y="636.4" type="curve" smooth="yes"/>
      <point x="548.8" y="607.9"/>
      <point x="539.7" y="563.4"/>
      <point x="527.7" y="524" type="curve" smooth="yes"/>
      <point x="507.9" y="464.9"/>
      <point x="477.2" y="423"/>
    </contour>
  </outline>
</glyph>
